<?xml version="1.0" encoding="UTF-8" standalone="no"?>
<!-- Created with Inkscape (http://www.inkscape.org/) -->

<svg
   xmlns:dc="http://purl.org/dc/elements/1.1/"
   xmlns:cc="http://creativecommons.org/ns#"
   xmlns:rdf="http://www.w3.org/1999/02/22-rdf-syntax-ns#"
   xmlns:svg="http://www.w3.org/2000/svg"
   xmlns="http://www.w3.org/2000/svg"
   xmlns:sodipodi="http://sodipodi.sourceforge.net/DTD/sodipodi-0.dtd"
   xmlns:inkscape="http://www.inkscape.org/namespaces/inkscape"
   width="136"
   height="136"
   viewBox="0 0 35.983333 35.983334"
   version="1.1"
   id="svg8"
   inkscape:version="0.92.4 5da689c313, 2019-01-14"
   sodipodi:docname="WhiteBishop.svg">
  <defs
     id="defs2" />
  <sodipodi:namedview
     id="base"
     pagecolor="#ffffff"
     bordercolor="#666666"
     borderopacity="1.0"
     inkscape:pageopacity="0.0"
     inkscape:pageshadow="2"
     inkscape:zoom="1.4"
     inkscape:cx="135.78443"
     inkscape:cy="56.055298"
     inkscape:document-units="mm"
     inkscape:current-layer="layer1"
     showgrid="false"
     units="px"
     inkscape:window-width="1362"
     inkscape:window-height="720"
     inkscape:window-x="0"
     inkscape:window-y="46"
     inkscape:window-maximized="0"
     inkscape:lockguides="true"
     inkscape:snap-object-midpoints="true"
     showguides="false"
     inkscape:snap-global="false" />
  <metadata
     id="metadata5">
    <rdf:RDF>
      <cc:Work
         rdf:about="">
        <dc:format>image/svg+xml</dc:format>
        <dc:type
           rdf:resource="http://purl.org/dc/dcmitype/StillImage" />
        <dc:title />
      </cc:Work>
    </rdf:RDF>
  </metadata>
  <g
     inkscape:label="Layer 1"
     inkscape:groupmode="layer"
     id="layer1"
     transform="translate(0,-261.01665)">
    <g
       id="g1155"
       transform="matrix(0.85556359,0,0,0.85556359,2.5986519,40.352967)">
      <polygon
         transform="matrix(-1.11111,0,0,-1.11111,33.38054,296.17683)"
         style="fill:#008000;fill-opacity:1;stroke:#000000;stroke-width:0.5291667;stroke-miterlimit:4;stroke-dasharray:none"
         points="13.85,31 3.844982,27.358471 0,0 27.7,0 23.855018,27.358471 "
         id="shogi_trapezoid" />
      <g
         style="fill:#dfa839;fill-opacity:1;stroke:#000000;stroke-width:4.36908722"
         inkscape:transform-center-y="-3.0698554"
         inkscape:transform-center-x="-0.58698903"
         id="layer1-6"
         transform="matrix(-0.04261447,0.03818582,0.03818582,0.04261447,17.115346,247.55401)">
        <path
           style="fill:#dfa839;fill-opacity:1;fill-rule:evenodd;stroke:#000000;stroke-width:4.36908722"
           inkscape:connector-curvature="0"
           id="rect1900"
           d="m 277.31,408.97 35.24,1.66 9.85,-1.72 8.02,0.92 4.42,-1.41 18.2,-0.56 122.72,-71.46 -22.54,-5 -6.77,-2.54 0.12,-1.27 8.58,1.09 32.63,7.31 26.06,7.28 -49.24,76.11 18.53,-4.68 14.39,6.84 1.14,3.28 41.45,-22.52 16.46,15.97 -10.7,22.14 -8.73,18.29 -19.41,0.38 15.93,8.5 0.1,7.78 -3.52,7.48 -8.19,0.56 29,11.96 0.93,3.44 9.05,5.05 c 0,-0.39 0.32,1.44 0.28,1.44 l -9.54,1.15 -3.34,2.64 -20.16,-3.73 -9.83,-2.11 -20.23,-2.31 20.67,11.55 -0.32,5.68 -3.33,8.86 -17.97,-0.68 -2.74,-0.29 13.75,7.59 0.07,2.93 -9.39,38.45 -21.75,6.31 -29.37,-51.34 -17.5,-12.85 -3.29,-0.82 -6.85,94.06 -22.37,-4.11 -25.57,-5.59 -19.8,-6.81 -0.55,-1.73 29.6,5.94 -8.67,-18.06 -1.57,-0.3 -0.02,-0.69 0.97,-0.21 -0.66,-2.2 -14.93,-29.68 -0.33,-0.73 -1.56,-0.43 -0.33,-0.98 1.08,-0.38 -28.64,-59.29 -0.14,-2.27 -5.56,-0.9 -12.74,-8.54 -0.53,-2.88 -5.4,-0.77 -19.8,-11.38 -73.06,-30.47 -46.03,-12.98 -21.72,-13.02 -15.74,-3.86 18.6,0.69 8.01,-1.6 16.56,-0.81 14,1.36 16.31,1.79 8.87,0.73 16.68,0.96 28.61,4.6 3.17,-0.38 -0.98,-1.24 0.03,-0.21 -8.48,-2.51 5.36,1.06 4.13,1.25 1.88,0.15 1.26,1.74 1.74,1.08 8.19,0.97 z" />
      </g>
    </g>
  </g>
</svg>
