<?xml version="1.0" encoding="UTF-8" standalone="no"?>
<!-- Created with Inkscape (http://www.inkscape.org/) -->

<svg
   xmlns:dc="http://purl.org/dc/elements/1.1/"
   xmlns:cc="http://creativecommons.org/ns#"
   xmlns:rdf="http://www.w3.org/1999/02/22-rdf-syntax-ns#"
   xmlns:svg="http://www.w3.org/2000/svg"
   xmlns="http://www.w3.org/2000/svg"
   xmlns:sodipodi="http://sodipodi.sourceforge.net/DTD/sodipodi-0.dtd"
   xmlns:inkscape="http://www.inkscape.org/namespaces/inkscape"
   width="136"
   height="136"
   viewBox="0 0 35.983333 35.983334"
   version="1.1"
   id="svg8"
   inkscape:version="0.92.4 5da689c313, 2019-01-14"
   sodipodi:docname="WhiteGoldPawn.svg">
  <defs
     id="defs2" />
  <sodipodi:namedview
     id="base"
     pagecolor="#ffffff"
     bordercolor="#666666"
     borderopacity="1.0"
     inkscape:pageopacity="0.0"
     inkscape:pageshadow="2"
     inkscape:zoom="1.979899"
     inkscape:cx="65.137443"
     inkscape:cy="47.252197"
     inkscape:document-units="mm"
     inkscape:current-layer="layer1"
     showgrid="false"
     units="px"
     inkscape:window-width="1362"
     inkscape:window-height="720"
     inkscape:window-x="0"
     inkscape:window-y="46"
     inkscape:window-maximized="0"
     inkscape:lockguides="true"
     inkscape:snap-object-midpoints="true"
     showguides="false"
     inkscape:snap-global="false" />
  <metadata
     id="metadata5">
    <rdf:RDF>
      <cc:Work
         rdf:about="">
        <dc:format>image/svg+xml</dc:format>
        <dc:type
           rdf:resource="http://purl.org/dc/dcmitype/StillImage" />
        <dc:title />
      </cc:Work>
    </rdf:RDF>
  </metadata>
  <g
     inkscape:label="Layer 1"
     inkscape:groupmode="layer"
     id="layer1"
     transform="translate(0,-261.01665)">
    <g
       id="g559"
       transform="matrix(0.85556359,0,0,0.85556359,2.5986519,40.352967)">
      <polygon
         transform="matrix(-1.11111,0,0,-1.11111,33.38054,296.17683)"
         style="fill:#008000;fill-opacity:1;stroke:#000000;stroke-width:0.5291667;stroke-miterlimit:4;stroke-dasharray:none"
         points="13.85,31 3.844982,27.358471 0,0 27.7,0 23.855018,27.358471 "
         id="shogi_trapezoid" />
      <g
         style="fill:#dfa839;fill-opacity:1;stroke:#000000;stroke-width:7.86800146"
         transform="matrix(0.02216572,0,0,0.02216572,13.166673,278.94584)"
         id="g601">
        <title
           id="title596">Layer 1</title>
        <path
           sodipodi:nodetypes="cccccccccccccccccccccccccccccccccccccccccccccc"
           style="fill:#dfa839;fill-opacity:1;fill-rule:evenodd;stroke:#000000;stroke-width:7.86800146"
           inkscape:connector-curvature="0"
           d="m 247.879,10.0038 c -36.791,0.0608 -74.282,8.3383 -107.444,23.585 -42.9683,21.467 -70.8571,55.7256 -85.8429,96.7502 l -12.5382,7.927 c -6.8129,4.31 -11.4921,14.305 -10.4679,22.389 l 14.7871,116.799 c 0.3954,3.13 1.6029,5.499 3.2999,6.982 0.3753,1.638 0.7707,3.276 1.17,4.904 -4.7502,12.804 -13.6209,18.606 -22.1068,25.08 l 1.0203,3.686 c 23.4487,4.993 47.07,7.235 70.8175,7.07 1.793,3.013 3.239,5.304 3.239,5.304 l 10.467,17.367 c 0.95,22.106 2.332,22.876 -3.782,35.592 -1.075,2.242 -9.719,-7.587 -10.9139,-5.451 -7.0912,12.637 -7.5424,43.587 -21.5069,64.084 -20.1593,27.518 -40.309,61.071 -60.4692,94.215 -5.8207,11.536 -8.50929,26.26 -8.60796,43.607 50.87576,-21.277 91.47796,-78.896 188.54896,0 38.758,16.889 77.506,16.002 116.264,0 -9.723,-21.696 -21.75,-44.962 -27.48,-63.957 2.765,-4.525 6.498,-9.332 11.672,-14.812 v -21.336 l 4.405,-6.913 3.033,7.742 c 11.854,2.887 23.718,-2.954 35.572,-8.015 l -5.702,-19.961 c 21.088,6.904 36.762,13.759 61.189,11.614 9.484,-1.872 9.061,-3.374 15.665,-8.172 6.287,-5.675 12.986,-12.374 10.462,-24.251 l -8.187,-28.551 c 5.09513,-24.17226 10.70692,-19.84376 3.781,-27.215 l 1.498,-0.888 6.21,-4.69 c -4.128,-7.303 -9.205,-9.039 -6.604,-29.224 l 26.251,-7.489 c 6.23,-2.935 8.399,-12.784 6.537,-21.881 l -40.946,-58.605 8.158,-13.524 -2.006,-6.914 c 19.936,1.424 40.063,-3.764 60.738,-14.266 l 3.417,-4.515 C 466.579,211.253 452,207.763 440.712,197.592 442.728,167.169 428.801,146.126 421.458,123.64 395.543,44.1912 323.21,9.88285 247.882,9.99987 Z"
           id="imagebot_2" />
      </g>
      <path
         inkscape:connector-curvature="0"
         id="path13694"
         d="m 12.97313,276.02481 0.0069,-2.71322 0.357676,-0.28302 c 1.815919,-1.43691 3.424552,-3.4258 4.491052,-5.55268 0.212826,-0.42444 0.614973,-1.34959 0.700758,-1.61216 0.02902,-0.0887 0.06436,-0.16153 0.07854,-0.16153 0.01408,0 0.04955,0.0726 0.07854,0.16153 0.08578,0.26257 0.487932,1.18772 0.700761,1.61216 1.0665,2.12688 2.675133,4.11577 4.491052,5.55268 l 0.357678,0.28302 0.0069,2.71322 c 0.0037,1.49225 0.0027,2.71319 -0.0025,2.71319 -0.05856,0 -1.061333,-0.59943 -1.634018,-0.97677 -1.247183,-0.82177 -2.307847,-1.693 -3.406559,-2.79816 l -0.591831,-0.59528 -0.591831,0.59528 c -0.567276,0.57061 -1.008424,0.97428 -1.606612,1.47012 -0.73175,0.60657 -1.627024,1.24429 -2.443978,1.74085 -0.369558,0.22475 -0.962695,0.56396 -0.985783,0.56396 -0.0074,0 -0.01037,-1.22094 -0.0067,-2.71319 z m 0.940301,1.20022 c 1.041616,-0.66234 1.872269,-1.29492 2.849852,-2.17023 0.344414,-0.30838 1.185971,-1.15159 1.383504,-1.38622 0.0761,-0.0904 0.210974,-0.24229 0.299757,-0.33751 l 0.161405,-0.17313 0.161404,0.17313 c 0.08877,0.0953 0.223669,0.24714 0.29976,0.33751 0.196105,0.2329 1.035224,1.07403 1.394687,1.398 0.329351,0.2968 1.04908,0.89981 1.295457,1.08535 0.395486,0.29781 0.641386,0.47448 0.953265,0.68489 0.410715,0.27706 0.835731,0.54842 0.858959,0.54842 0.0094,0 0.01704,-0.30878 0.01704,-0.68619 v -0.68622 l -0.259983,-0.1766 c -0.458469,-0.31142 -1.257962,-0.92221 -1.613918,-1.23299 -0.809844,-0.70702 -1.806803,-1.71054 -2.261239,-2.27613 -0.06765,-0.0842 -0.13026,-0.16005 -0.139151,-0.16845 -0.0089,-0.01 -0.06387,-0.0776 -0.122183,-0.15362 -0.05831,-0.0761 -0.114008,-0.14523 -0.123764,-0.15362 -0.0099,-0.01 -0.112723,-0.14326 -0.228757,-0.29977 -0.116058,-0.15634 -0.220285,-0.2844 -0.231597,-0.2844 -0.01136,0 -0.115539,0.12794 -0.231597,0.2844 -0.116058,0.15634 -0.219001,0.29129 -0.228757,0.29977 -0.0099,0.01 -0.06548,0.0776 -0.123763,0.15362 -0.05831,0.0761 -0.113292,0.14523 -0.122183,0.15362 -0.0089,0.01 -0.0715,0.0842 -0.139151,0.16845 -0.454436,0.56559 -1.451393,1.56911 -2.261237,2.27613 -0.355956,0.31078 -1.155449,0.92157 -1.613918,1.23299 l -0.259983,0.1766 v 0.68622 c 0,0.37741 0.0077,0.68619 0.01704,0.68619 0.0094,0 0.130457,-0.0721 0.269015,-0.16029 z m -0.05797,-2.11488 c 0.983068,-0.73414 1.423241,-1.10486 2.135373,-1.79856 0.590868,-0.57555 1.043118,-1.06707 1.50095,-1.63126 0.08123,-0.10003 0.178842,-0.21661 0.216877,-0.25889 0.03804,-0.0422 0.06918,-0.0864 0.06918,-0.0981 0,-0.0123 0.01877,-0.0398 0.04149,-0.0627 0.06891,-0.0689 0.63059,-0.85382 0.702322,-0.98146 0.03678,-0.0654 0.07563,-0.11905 0.0863,-0.11905 0.01062,0 0.04952,0.0536 0.0863,0.11905 0.07172,0.12769 0.633421,0.91258 0.702325,0.98146 0.02272,0.0222 0.04149,0.0511 0.04149,0.0627 0,0.0124 0.03115,0.0558 0.06918,0.0981 0.03804,0.0422 0.135644,0.15881 0.216877,0.25889 0.455451,0.56125 0.932494,1.07863 1.534061,1.66376 0.665556,0.64737 1.14754,1.05151 2.136843,1.79177 l 0.178174,0.13337 0.0086,-0.76357 0.0086,-0.76361 -0.07288,-0.0615 c -0.04009,-0.0338 -0.265332,-0.22007 -0.500538,-0.41405 -0.463945,-0.38245 -1.644475,-1.54545 -2.003343,-1.9736 -0.925304,-1.10387 -1.64921,-2.17124 -2.222554,-3.27704 -0.08985,-0.17338 -0.172198,-0.31512 -0.182941,-0.31512 -0.01087,0 -0.07913,0.1141 -0.15197,0.25365 -0.535103,1.02498 -1.12011,1.9262 -1.831267,2.82115 -0.756418,0.95188 -1.807156,2.00445 -2.774694,2.77949 l -0.222904,0.17857 v 0.76666 c 0,0.63974 0.0069,0.76261 0.04201,0.74209 0.02322,-0.0123 0.10687,-0.0731 0.186102,-0.13214 z"
         style="fill:#ff0000;fill-opacity:1;stroke:#000000;stroke-width:0.25" />
      <path
         transform="matrix(0.26458333,0,0,0.26458333,0,261.01665)"
         inkscape:connector-curvature="0"
         id="path13700"
         d="m 51.88754,59.057926 0.01911,-2.365022 3.292765,-2.399112 c 3.875265,-2.823523 11.097002,-9.829367 13.462803,-13.060336 0.833376,-1.138139 1.57205,-2.066616 1.641498,-2.063281 0.06945,0.0033 0.921764,1.036208 1.894036,2.295275 3.484974,4.512951 10.50297,11.100531 15.286467,14.348942 l 1.507319,1.023601 v 2.290452 c 0,2.042564 -0.04598,2.272807 -0.424867,2.127415 -0.875515,-0.335966 -6.056731,-4.132038 -9.040532,-6.62364 -1.701332,-1.420684 -4.466706,-4.031484 -6.145275,-5.801776 l -3.051942,-3.218715 -3.205985,3.344317 c -4.375038,4.563812 -9.447112,8.751976 -14.560025,12.022651 l -0.69448,0.444251 z"
         style="opacity:1;fill:#ff0000;fill-opacity:1;stroke:#ff0000;stroke-width:0.09544749;stroke-linecap:square;stroke-linejoin:miter;stroke-miterlimit:1;stroke-dasharray:none;stroke-opacity:1;paint-order:fill markers stroke" />
      <path
         transform="matrix(0.26458333,0,0,0.26458333,0,261.01665)"
         inkscape:connector-curvature="0"
         id="path13702"
         d="m 51.868431,50.692884 v -2.652599 l 0.865812,-0.660387 c 2.869257,-2.188489 8.316797,-7.77183 10.994765,-11.268852 1.907328,-2.490683 4.337691,-6.205999 5.473336,-8.367137 0.501268,-0.953914 1.008652,-1.734389 1.12752,-1.734389 0.118868,0 0.461767,0.48298 0.761997,1.073288 3.196016,6.28396 9.59099,14.141538 15.816237,19.433591 l 2.083439,1.771123 -0.01871,1.424771 c -0.0103,0.783625 -0.09553,1.898632 -0.189404,2.477796 l -0.17069,1.053025 -2.399112,-1.8865 C 80.930666,47.202458 75.7012,41.765341 72.185948,36.771933 c -0.94518,-1.342626 -1.801604,-2.409919 -1.903163,-2.371762 -0.10156,0.03816 -0.952937,1.148978 -1.89195,2.468489 -4.14145,5.819616 -9.132935,10.819857 -16.206731,16.235162 -0.247841,0.189732 -0.315673,-0.328332 -0.315673,-2.410938 z"
         style="opacity:1;fill:#ff0000;fill-opacity:1;stroke:#ff0000;stroke-width:0.09544749;stroke-linecap:square;stroke-linejoin:miter;stroke-miterlimit:1;stroke-dasharray:none;stroke-opacity:1;paint-order:fill markers stroke" />
    </g>
  </g>
</svg>
