<?xml version="1.0" encoding="UTF-8" standalone="no"?>
<!-- Created with Inkscape (http://www.inkscape.org/) -->

<svg
   xmlns:dc="http://purl.org/dc/elements/1.1/"
   xmlns:cc="http://creativecommons.org/ns#"
   xmlns:rdf="http://www.w3.org/1999/02/22-rdf-syntax-ns#"
   xmlns:svg="http://www.w3.org/2000/svg"
   xmlns="http://www.w3.org/2000/svg"
   xmlns:sodipodi="http://sodipodi.sourceforge.net/DTD/sodipodi-0.dtd"
   xmlns:inkscape="http://www.inkscape.org/namespaces/inkscape"
   width="156.75787"
   height="156.75787"
   viewBox="0 0 41.47552 41.475521"
   version="1.1"
   id="svg8"
   inkscape:version="0.92.4 5da689c313, 2019-01-14"
   sodipodi:docname="WhiteBishop.svg">
  <defs
     id="defs2">
    <inkscape:path-effect
       effect="mirror_symmetry"
       start_point="645.03669,116.30607"
       end_point="644.85991,225.02374"
       center_point="644.9483,170.66491"
       id="path-effect10989-6"
       is_visible="true"
       mode="free"
       discard_orig_path="false"
       fuse_paths="true"
       oposite_fuse="false" />
    <inkscape:path-effect
       effect="mirror_symmetry"
       start_point="284.18608,120.29265"
       end_point="284.18608,137.98161"
       center_point="284.18608,129.13713"
       id="path-effect4724"
       is_visible="true"
       mode="free"
       discard_orig_path="false"
       fuse_paths="true"
       oposite_fuse="false" />
    <inkscape:path-effect
       effect="mirror_symmetry"
       start_point="275.14301,98.12006"
       end_point="275.14301,350.07326"
       center_point="275.14301,224.09666"
       id="path-effect4547-0-8"
       is_visible="true"
       mode="free"
       discard_orig_path="false"
       fuse_paths="true"
       oposite_fuse="false" />
    <inkscape:path-effect
       effect="mirror_symmetry"
       start_point="273.50283,331.92091"
       end_point="273.50283,477.30227"
       center_point="273.50283,404.61159"
       id="path-effect4557-0-4"
       is_visible="true"
       mode="free"
       discard_orig_path="false"
       fuse_paths="false"
       oposite_fuse="false" />
    <inkscape:path-effect
       effect="mirror_symmetry"
       start_point="275.14301,98.12006"
       end_point="275.14301,350.07326"
       center_point="275.14301,224.09666"
       id="path-effect4547-0"
       is_visible="true"
       mode="free"
       discard_orig_path="false"
       fuse_paths="true"
       oposite_fuse="false" />
    <inkscape:path-effect
       effect="mirror_symmetry"
       start_point="274.67636,240.21573"
       end_point="274.67636,418.88419"
       center_point="274.67636,329.54996"
       id="path-effect4551-7"
       is_visible="true"
       mode="free"
       discard_orig_path="false"
       fuse_paths="false"
       oposite_fuse="false" />
    <inkscape:path-effect
       effect="mirror_symmetry"
       start_point="273.50283,331.92091"
       end_point="273.50283,477.30227"
       center_point="273.50283,404.61159"
       id="path-effect4557-0"
       is_visible="true"
       mode="free"
       discard_orig_path="false"
       fuse_paths="false"
       oposite_fuse="false" />
  </defs>
  <sodipodi:namedview
     id="base"
     pagecolor="#ffffff"
     bordercolor="#666666"
     borderopacity="1.0"
     inkscape:pageopacity="0.0"
     inkscape:pageshadow="2"
     inkscape:zoom="1.4"
     inkscape:cx="58.537096"
     inkscape:cy="193.00643"
     inkscape:document-units="mm"
     inkscape:current-layer="layer1"
     showgrid="false"
     units="px"
     inkscape:window-width="679"
     inkscape:window-height="720"
     inkscape:window-x="0"
     inkscape:window-y="46"
     inkscape:window-maximized="0"
     inkscape:lockguides="true"
     inkscape:snap-object-midpoints="true"
     showguides="true"
     inkscape:snap-global="true"
     inkscape:guide-bbox="true"
     inkscape:snap-bbox="true" />
  <metadata
     id="metadata5">
    <rdf:RDF>
      <cc:Work
         rdf:about="">
        <dc:format>image/svg+xml</dc:format>
        <dc:type
           rdf:resource="http://purl.org/dc/dcmitype/StillImage" />
        <dc:title />
      </cc:Work>
    </rdf:RDF>
  </metadata>
  <g
     inkscape:label="Layer 1"
     inkscape:groupmode="layer"
     id="layer1"
     transform="translate(51.389145,-267.35772)"
     style="display:inline">
    <rect
       style="opacity:1;fill:#d7b5d6;fill-opacity:1;stroke:#000000;stroke-width:0.55474907;stroke-linecap:square;stroke-linejoin:miter;stroke-miterlimit:4;stroke-dasharray:none;stroke-opacity:1;paint-order:fill markers stroke"
       id="rect5497"
       width="34.787006"
       height="34.787006"
       x="13.257881"
       y="-305.48898"
       ry="2.1199546"
       transform="scale(-1)" />
    <path
       sodipodi:type="star"
       style="display:inline;opacity:1;fill:#e95c35;fill-opacity:1;stroke:#000000;stroke-width:0.25;stroke-linecap:square;stroke-linejoin:miter;stroke-miterlimit:4;stroke-dasharray:none;stroke-opacity:1;paint-order:fill markers stroke"
       id="path10754-6"
       sodipodi:sides="3"
       sodipodi:cx="-28.324093"
       sodipodi:cy="268.94327"
       sodipodi:r1="1.5686662"
       sodipodi:r2="0.78433317"
       sodipodi:arg1="2.0943951"
       sodipodi:arg2="3.1415927"
       inkscape:flatsided="true"
       inkscape:rounded="0"
       inkscape:randomized="0"
       d="m -29.108426,270.30177 0,-2.71701 2.352999,1.35851 z"
       inkscape:transform-center-x="-0.17840102"
       inkscape:transform-center-y="-0.22739163"
       transform="rotate(136.85246,-42.849542,282.39742)" />
    <g
       id="g11547"
       transform="matrix(-0.78674347,0,0,-0.78674347,-93.901907,509.25189)">
      <path
         inkscape:connector-curvature="0"
         id="path11355"
         d="m -94.896099,289.4836 c -0.832835,-2.74859 -1.581643,-5.86315 -1.664014,-6.92125 -0.467012,-5.99924 4.023942,-12.41806 9.893478,-14.14054 7.15559,-2.09988 15.648661,0.46744 20.120448,6.08209 2.889226,3.62763 3.109811,8.68772 0.680167,15.60262 l -1.188679,3.38305 -1.845166,-0.31004 c -1.221219,-0.20521 -1.926269,-0.49853 -2.085001,-0.86749 -0.179337,-0.41686 -0.280337,-0.31153 -0.400409,0.41755 -0.19722,1.19774 -1.560314,1.61598 -4.791295,1.47017 -2.10144,-0.0949 -2.185115,-0.13072 -2.221905,-0.95248 -0.128739,-2.87575 -0.112166,-2.83031 -1.089881,-2.98827 -0.523142,-0.0842 -2.377098,-0.10864 -4.12,-0.0536 l -3.168914,0.10008 0.02709,1.27786 c 0.0149,0.70281 0.05363,1.62118 0.08607,2.0408 0.05432,0.70267 -0.19501,0.76884 -3.15584,0.83752 -1.768141,0.041 -3.292906,0.0622 -3.388356,0.047 -0.0954,-0.0152 -0.854944,-2.27645 -1.68779,-5.02505 z m 6.999492,1.84208 c 0.188116,-1.89539 0.240411,-1.98878 1.158991,-2.06995 2.213783,-0.19565 8.285389,-0.13053 8.80068,0.0944 0.382707,0.16704 0.545927,0.79617 0.520421,2.00592 l -0.03716,1.76255 1.657803,0.0199 c 3.33991,0.0401 3.125836,0.31765 3.760825,-4.87578 0.480579,-3.93053 0.635801,-4.57323 1.087192,-4.50142 0.753394,0.11985 0.989944,1.72234 0.69791,4.72798 -0.271477,2.79408 0.07535,3.61094 1.638749,3.85965 0.5682,0.0904 0.86954,-0.1254 1.122462,-0.80378 2.909844,-7.80472 2.958863,-13.06686 0.15323,-16.44895 -4.716874,-5.68602 -14.351731,-8.01527 -20.692941,-5.00258 -2.493104,1.18447 -4.712951,3.36971 -6.035189,5.94111 -1.960575,3.8128 -1.917938,6.53884 0.205994,13.17068 l 1.347994,4.20902 2.208014,-0.0519 2.20802,-0.0519 z m 4.058543,-9.04758 c -0.534212,-0.34694 -1.2957,-1.11772 -1.692197,-1.71284 -0.632674,-0.94961 -0.671074,-1.39528 -0.31376,-3.6414 0.435869,-2.73994 1.052415,-3.6787 3.133991,-4.77185 2.097335,-1.10142 6.211459,-0.0959 7.525233,1.83922 0.827018,1.21816 0.257296,1.9713 -0.62848,0.83082 -0.844153,-1.08689 -2.192374,-1.82945 -3.763758,-2.07298 -1.699947,-0.26334 -2.930766,0.16919 -4.126097,1.45036 -1.205636,1.29221 -1.780878,4.15358 -1.111364,5.52815 0.984525,2.02129 4.340136,3.04014 7.703987,2.33911 2.31126,-0.48166 2.135829,-0.49043 2.041585,0.102 -0.04197,0.26384 -0.903023,0.68947 -1.913452,0.94586 -2.119116,0.53771 -5.346033,0.14401 -6.855688,-0.83645 z m 11.554976,-4.06154 c -0.320041,-0.92338 0.121111,-1.70146 1.043501,-1.84046 1.367284,-0.20606 2.055279,1.59204 0.923372,2.41324 -0.726824,0.52732 -1.681992,0.24916 -1.966873,-0.57278 z"
         style="fill:#000000;stroke-width:0.35277778" />
    </g>
    <path
       sodipodi:type="star"
       style="display:inline;opacity:1;fill:#e95c35;fill-opacity:1;stroke:#000000;stroke-width:0.25;stroke-linecap:square;stroke-linejoin:miter;stroke-miterlimit:4;stroke-dasharray:none;stroke-opacity:1;paint-order:fill markers stroke"
       id="path10754-6-0"
       sodipodi:sides="3"
       sodipodi:cx="-28.324093"
       sodipodi:cy="268.94327"
       sodipodi:r1="1.5686662"
       sodipodi:r2="0.78433317"
       sodipodi:arg1="2.0943951"
       sodipodi:arg2="3.1415927"
       inkscape:flatsided="true"
       inkscape:rounded="0"
       inkscape:randomized="0"
       d="m -29.108426,270.30177 0,-2.71701 2.352999,1.35851 z"
       inkscape:transform-center-x="0.17839778"
       inkscape:transform-center-y="-0.22738925"
       transform="matrix(0.72959509,0.68387938,0.68387938,-0.72959509,-180.07339,517.73711)" />
    <path
       sodipodi:type="star"
       style="display:inline;opacity:1;fill:#e95c35;fill-opacity:1;stroke:#000000;stroke-width:0.25;stroke-linecap:square;stroke-linejoin:miter;stroke-miterlimit:4;stroke-dasharray:none;stroke-opacity:1;paint-order:fill markers stroke"
       id="path10754-6-0-6"
       sodipodi:sides="3"
       sodipodi:cx="-28.324093"
       sodipodi:cy="268.94327"
       sodipodi:r1="1.5686662"
       sodipodi:r2="0.78433317"
       sodipodi:arg1="2.0943951"
       sodipodi:arg2="3.1415927"
       inkscape:flatsided="true"
       inkscape:rounded="0"
       inkscape:randomized="0"
       d="m -29.108426,270.30177 0,-2.71701 2.352999,1.35851 z"
       inkscape:transform-center-x="0.17838811"
       inkscape:transform-center-y="0.22740623"
       transform="rotate(-43.14753,-15.778364,256.80895)" />
    <path
       sodipodi:type="star"
       style="display:inline;opacity:1;fill:#e95c35;fill-opacity:1;stroke:#000000;stroke-width:0.25;stroke-linecap:square;stroke-linejoin:miter;stroke-miterlimit:4;stroke-dasharray:none;stroke-opacity:1;paint-order:fill markers stroke"
       id="path10754-6-3"
       sodipodi:sides="3"
       sodipodi:cx="-28.324093"
       sodipodi:cy="268.94327"
       sodipodi:r1="1.5686662"
       sodipodi:r2="0.78433317"
       sodipodi:arg1="2.0943951"
       sodipodi:arg2="3.1415927"
       inkscape:flatsided="true"
       inkscape:rounded="0"
       inkscape:randomized="0"
       d="m -29.108426,270.30177 0,-2.71701 2.352999,1.35851 z"
       inkscape:transform-center-x="-0.17839672"
       inkscape:transform-center-y="0.22739806"
       transform="matrix(-0.72959515,-0.68387931,-0.68387931,0.72959515,118.91347,58.651897)" />
    <path
       style="opacity:1;fill:#ececec;fill-opacity:1;stroke:none;stroke-width:0.03156727;stroke-linecap:square;stroke-linejoin:miter;stroke-miterlimit:4;stroke-dasharray:none;stroke-opacity:1;paint-order:fill markers stroke"
       d="m -29.529738,297.83261 c 2.084718,-0.009 4.209595,-0.48699 5.968951,-1.64028 1.669312,-1.10256 3.042788,-2.66236 3.888636,-4.47847 0.585595,-1.20886 0.972147,-2.54069 0.920174,-3.89407 0.02018,-1.38393 -0.311394,-2.73831 -0.656824,-4.06843 -0.473643,-1.71194 -1.058092,-3.39082 -1.586853,-5.08611 -0.04348,-0.12657 -0.05898,-0.33818 -0.24651,-0.28753 -1.115185,0.0209 -2.232346,0.0368 -3.345894,0.0916 -0.100386,0.13916 -0.05078,0.35006 -0.09435,0.51459 -0.09872,0.75132 -0.115753,1.52089 -0.288479,2.25755 -0.04645,0.23749 -0.27614,0.35678 -0.499649,0.36877 -1.098501,0.12497 -2.219685,0.0902 -3.329627,0.11182 -1.206924,-0.009 -2.41872,0.0139 -3.618252,-0.12628 -0.337269,-0.0291 -0.4658,-0.43006 -0.493035,-0.72049 -0.04606,-0.75093 0.007,-1.51631 -0.03365,-2.26463 -0.306387,-0.0542 -0.652782,-0.006 -0.9741,-0.0224 -0.703799,0.0178 -1.414659,-0.0406 -2.113687,0.0584 -0.413991,0.0716 -0.68413,0.44348 -0.779753,0.83013 -0.249055,0.92399 -0.302036,1.88695 -0.4395,2.83114 -0.15218,1.08843 -0.238604,2.18993 -0.502563,3.25735 -0.05134,0.15029 -0.12039,0.40633 -0.319246,0.39423 -0.364278,-0.0905 -0.448958,-0.51095 -0.523967,-0.82165 -0.135618,-0.80891 -0.06617,-1.63845 -0.02775,-2.45356 0.04713,-0.85081 0.210161,-1.73411 -0.03678,-2.56955 -0.122849,-0.45716 -0.544489,-0.75902 -0.991756,-0.85199 -0.334772,-0.10048 -0.780622,-0.11864 -0.990971,0.2184 -0.281469,0.48546 -0.419981,1.04004 -0.617204,1.56264 -0.787035,2.36014 -1.422228,4.83003 -1.308986,7.33759 0.0708,1.61832 0.583483,3.25038 1.643129,4.49763 1.782844,2.12174 4.287816,3.54876 6.928434,4.31767 1.449677,0.42252 2.958647,0.65322 4.470063,0.63589 z m -1.045326,-2.38128 c -1.244623,-0.0339 -2.517728,-0.38536 -3.519658,-1.14764 -0.431268,-0.35226 -0.852273,-0.81593 -0.923437,-1.38953 -0.03169,-0.16783 0.140921,-0.366 0.305767,-0.23432 0.419928,0.29382 0.681801,0.76118 1.104329,1.05597 0.916683,0.71766 2.107467,1.06922 3.266337,1.01485 1.328225,-0.0725 2.478756,-1.05465 2.974975,-2.25546 0.382869,-0.92807 0.577755,-1.97605 0.361588,-2.96902 -0.21841,-0.83513 -0.948812,-1.42285 -1.688235,-1.79789 -1.235175,-0.60102 -2.661003,-0.68457 -4.006025,-0.51804 -0.683161,0.0914 -1.352519,0.28246 -2.033718,0.36165 -0.121002,-0.007 -0.116463,-0.10829 -0.08692,-0.19158 0.02405,-0.24419 0.309441,-0.34404 0.489255,-0.458 0.776273,-0.38129 1.645886,-0.55187 2.515358,-0.52739 0.599447,-0.017 1.201055,-0.0116 1.790382,0.11337 0.961333,0.16515 1.958451,0.46606 2.650161,1.1936 0.440938,0.45443 0.887978,0.9474 1.07928,1.56406 0.148953,0.74085 -0.0332,1.49828 -0.136701,2.23916 -0.166242,0.96513 -0.382072,2.00901 -1.12389,2.70284 -0.55376,0.50328 -1.212842,0.91274 -1.932661,1.1273 -0.355263,0.0854 -0.72045,0.11588 -1.086192,0.11607 z m -7.436566,-3.68409 c -0.554905,0.0524 -1.004986,-0.50557 -0.962914,-1.03528 -0.0013,-0.53241 0.509235,-0.99915 1.036518,-0.97055 0.540835,-0.026 0.959255,0.50586 0.923827,1.02314 0.06169,0.40338 -0.224993,0.79448 -0.605337,0.92546 -0.12264,0.0568 -0.259765,0.0573 -0.392094,0.0572 z"
       id="path12210"
       inkscape:connector-curvature="0" />
  </g>
</svg>
