<?xml version="1.0" encoding="UTF-8" standalone="no"?>
<!-- Created with Inkscape (http://www.inkscape.org/) -->

<svg
   xmlns:dc="http://purl.org/dc/elements/1.1/"
   xmlns:cc="http://creativecommons.org/ns#"
   xmlns:rdf="http://www.w3.org/1999/02/22-rdf-syntax-ns#"
   xmlns:svg="http://www.w3.org/2000/svg"
   xmlns="http://www.w3.org/2000/svg"
   xmlns:sodipodi="http://sodipodi.sourceforge.net/DTD/sodipodi-0.dtd"
   xmlns:inkscape="http://www.inkscape.org/namespaces/inkscape"
   width="156.75787"
   height="156.75787"
   viewBox="0 0 41.47552 41.475521"
   version="1.1"
   id="svg8"
   inkscape:version="0.92.4 5da689c313, 2019-01-14"
   sodipodi:docname="WhiteGoldPawn.svg">
  <defs
     id="defs2">
    <inkscape:path-effect
       effect="mirror_symmetry"
       start_point="645.03669,116.30607"
       end_point="644.85991,225.02374"
       center_point="644.9483,170.66491"
       id="path-effect10989-6"
       is_visible="true"
       mode="free"
       discard_orig_path="false"
       fuse_paths="true"
       oposite_fuse="false" />
    <inkscape:path-effect
       effect="mirror_symmetry"
       start_point="284.18608,120.29265"
       end_point="284.18608,137.98161"
       center_point="284.18608,129.13713"
       id="path-effect4724"
       is_visible="true"
       mode="free"
       discard_orig_path="false"
       fuse_paths="true"
       oposite_fuse="false" />
    <inkscape:path-effect
       effect="mirror_symmetry"
       start_point="275.14301,98.12006"
       end_point="275.14301,350.07326"
       center_point="275.14301,224.09666"
       id="path-effect4547-0-8"
       is_visible="true"
       mode="free"
       discard_orig_path="false"
       fuse_paths="true"
       oposite_fuse="false" />
    <inkscape:path-effect
       effect="mirror_symmetry"
       start_point="273.50283,331.92091"
       end_point="273.50283,477.30227"
       center_point="273.50283,404.61159"
       id="path-effect4557-0-4"
       is_visible="true"
       mode="free"
       discard_orig_path="false"
       fuse_paths="false"
       oposite_fuse="false" />
    <inkscape:path-effect
       effect="mirror_symmetry"
       start_point="275.14301,98.12006"
       end_point="275.14301,350.07326"
       center_point="275.14301,224.09666"
       id="path-effect4547-0"
       is_visible="true"
       mode="free"
       discard_orig_path="false"
       fuse_paths="true"
       oposite_fuse="false" />
    <inkscape:path-effect
       effect="mirror_symmetry"
       start_point="274.67636,240.21573"
       end_point="274.67636,418.88419"
       center_point="274.67636,329.54996"
       id="path-effect4551-7"
       is_visible="true"
       mode="free"
       discard_orig_path="false"
       fuse_paths="false"
       oposite_fuse="false" />
    <inkscape:path-effect
       effect="mirror_symmetry"
       start_point="273.50283,331.92091"
       end_point="273.50283,477.30227"
       center_point="273.50283,404.61159"
       id="path-effect4557-0"
       is_visible="true"
       mode="free"
       discard_orig_path="false"
       fuse_paths="false"
       oposite_fuse="false" />
  </defs>
  <sodipodi:namedview
     id="base"
     pagecolor="#ffffff"
     bordercolor="#666666"
     borderopacity="1.0"
     inkscape:pageopacity="0.0"
     inkscape:pageshadow="2"
     inkscape:zoom="1"
     inkscape:cx="153.93275"
     inkscape:cy="155.32347"
     inkscape:document-units="mm"
     inkscape:current-layer="layer1"
     showgrid="false"
     units="px"
     inkscape:window-width="679"
     inkscape:window-height="720"
     inkscape:window-x="0"
     inkscape:window-y="46"
     inkscape:window-maximized="0"
     inkscape:lockguides="true"
     inkscape:snap-object-midpoints="true"
     showguides="true"
     inkscape:snap-global="false"
     inkscape:guide-bbox="true" />
  <metadata
     id="metadata5">
    <rdf:RDF>
      <cc:Work
         rdf:about="">
        <dc:format>image/svg+xml</dc:format>
        <dc:type
           rdf:resource="http://purl.org/dc/dcmitype/StillImage" />
        <dc:title />
      </cc:Work>
    </rdf:RDF>
  </metadata>
  <g
     inkscape:label="Layer 1"
     inkscape:groupmode="layer"
     id="layer1"
     transform="translate(51.389145,-267.35772)">
    <rect
       style="opacity:1;fill:#edf0a1;fill-opacity:1;stroke:#000000;stroke-width:0.55474907;stroke-linecap:square;stroke-linejoin:miter;stroke-miterlimit:4;stroke-dasharray:none;stroke-opacity:1;paint-order:fill markers stroke"
       id="rect5497"
       width="34.787006"
       height="34.787006"
       x="13.257881"
       y="-305.48898"
       ry="2.1199546"
       transform="scale(-1)" />
    <circle
       style="opacity:1;fill:#0b58ad;fill-opacity:1;stroke:#000000;stroke-width:0.34063438;stroke-linecap:square;stroke-linejoin:miter;stroke-miterlimit:4;stroke-dasharray:none;stroke-opacity:1;paint-order:fill markers stroke"
       id="path5973"
       cx="16.072006"
       cy="-302.35797"
       r="1.2745767"
       transform="scale(-1)" />
    <circle
       style="opacity:1;fill:#0f57ab;fill-opacity:1;stroke:#000000;stroke-width:0.34063438;stroke-linecap:square;stroke-linejoin:miter;stroke-miterlimit:4;stroke-dasharray:none;stroke-opacity:1;paint-order:fill markers stroke"
       id="path5973-1"
       cx="30.43206"
       cy="-302.45172"
       r="1.2745767"
       transform="scale(-1)" />
    <circle
       style="opacity:1;fill:#0d5aac;fill-opacity:1;stroke:#000000;stroke-width:0.34063438;stroke-linecap:square;stroke-linejoin:miter;stroke-miterlimit:4;stroke-dasharray:none;stroke-opacity:1;paint-order:fill markers stroke"
       id="path5973-1-8"
       cx="44.528564"
       cy="-302.41144"
       r="1.2745767"
       transform="scale(-1)" />
    <circle
       style="opacity:1;fill:#0d5aac;fill-opacity:1;stroke:#000000;stroke-width:0.34063438;stroke-linecap:square;stroke-linejoin:miter;stroke-miterlimit:4;stroke-dasharray:none;stroke-opacity:1;paint-order:fill markers stroke"
       id="path5973-1-7"
       cx="16.117584"
       cy="-288.13724"
       r="1.2745767"
       transform="scale(-1)" />
    <circle
       style="opacity:1;fill:#0d5aac;fill-opacity:1;stroke:#000000;stroke-width:0.34063438;stroke-linecap:square;stroke-linejoin:miter;stroke-miterlimit:4;stroke-dasharray:none;stroke-opacity:1;paint-order:fill markers stroke"
       id="path5973-1-9"
       cx="44.471626"
       cy="-288.19418"
       r="1.2745767"
       transform="scale(-1)" />
    <circle
       style="opacity:1;fill:#0d5aac;fill-opacity:1;stroke:#000000;stroke-width:0.34063438;stroke-linecap:square;stroke-linejoin:miter;stroke-miterlimit:4;stroke-dasharray:none;stroke-opacity:1;paint-order:fill markers stroke"
       id="path5973-1-0"
       cx="30.368219"
       cy="-273.69913"
       r="1.2745767"
       transform="scale(-1)" />
    <path
       inkscape:connector-curvature="0"
       id="path16248"
       d="m -30.205809,276.71867 c -0.0095,0.52127 -0.05802,0.92293 0.610947,0.59557 0.85443,-0.12097 0.889136,0.21522 0.04394,0.68328 -0.93344,0.51693 -0.52879,0.85019 1.466111,1.20745 2.172542,0.38907 4.192654,1.58878 5.050403,2.9994 0.790183,1.29947 1.765666,4.85974 1.812239,6.61418 0.03751,1.41302 0.05424,1.44006 0.949045,1.5346 0.500963,0.0529 0.90076,0.18737 0.888426,0.29876 -0.06064,0.54649 -1.342995,1.84264 -1.901485,1.92171 -0.482403,0.0683 -1.065208,0.79567 -2.448718,3.05617 -1.954396,3.19322 -2.867922,4.06623 -3.678698,3.51552 -0.265415,-0.18029 -0.46239,-0.5189 -0.437711,-0.75248 0.03154,-0.29849 -0.101737,-0.38169 -0.448527,-0.28 -1.273294,0.37343 -1.425603,0.32365 -1.432469,-0.46816 -0.006,-0.69712 -0.09848,-0.77933 -0.884518,-0.78669 -0.74543,-0.007 -0.892853,-0.11479 -0.977824,-0.71489 -0.06623,-0.46781 0.113395,-0.99447 0.531534,-1.55797 0.629719,-0.84878 0.630543,-0.85657 0.2787,-2.63746 -0.869604,-4.40167 -0.790743,-4.35218 -7.614537,-4.77933 -0.859128,-0.0538 -0.944998,-0.13794 -1.048722,-1.02673 -0.405679,-3.47681 2.476426,-6.46366 6.863114,-7.11257 1.040053,-0.15384 1.901664,-0.38069 1.914705,-0.50411 0.01304,-0.12343 -0.327472,-0.39004 -0.756694,-0.59247 -0.878196,-0.21503 -0.605417,-1.04634 0.07841,-0.65159 0.538509,0.31086 0.556179,-0.21386 0.534405,-0.51221 -0.01781,-0.24926 0.125219,-0.49028 0.317816,-0.53561 0.322434,0.10319 0.300026,0.43899 0.290175,0.48563 z m -3.855138,3.3002 c -1.789437,0.5862 -3.607835,1.93987 -4.21373,3.13686 -0.481217,1.07046 -0.593381,1.72965 -0.548888,3.21437 l 2.331599,0.2393 c 4.2878,0.11664 5.813264,1.13043 6.17034,4.10067 0.398195,3.3123 1.414362,4.74162 3.529954,4.96514 1.907317,0.20152 4.161011,-2.02701 4.806714,-4.75304 0.538639,-2.27398 -0.656754,-7.22981 -2.172678,-9.00746 -1.846031,-2.16474 -6.413132,-3.03892 -9.903338,-1.89558 z m 10.328753,11.9987 c 0.194949,0.72947 -0.243336,1.26905 -0.89727,1.10464 -0.439844,-0.11057 -0.580945,-0.33114 -0.528624,-0.82634 0.05232,-0.49518 0.236396,-0.68137 0.689638,-0.6976 0.370854,-0.0133 0.665494,0.15447 0.736256,0.4193 z m 2.26204,-0.79557 c -0.119527,0.23429 -0.162966,0.49309 -0.09663,0.57514 0.154261,0.1907 1.00841,-0.3706 1.04157,-0.68445 0.04434,-0.41963 -0.720291,-0.33116 -0.944968,0.10931 z m -9.376027,4.4866 c -0.05251,0.49702 0.332386,0.47964 0.914509,-0.0413 0.390364,-0.34933 0.432657,-0.52056 0.199728,-0.80852 -0.23294,-0.28799 -0.378264,-0.27412 -0.6862,0.0654 -0.21487,0.23691 -0.407487,0.5899 -0.428037,0.7844 z m 3.665022,1.55259 c -0.118213,1.1819 0.209237,1.48617 0.928772,0.86422 0.350194,-0.30269 0.789171,-0.85243 0.975474,-1.22162 l 0.338739,-0.67128 -1.087255,0.17052 c -0.905397,0.14199 -1.09871,0.28554 -1.15573,0.85816 z m -1.85388,-0.59382 c -0.07792,0.73751 0.162538,0.88163 0.71942,0.43118 0.549736,-0.44468 0.494206,-0.98599 -0.10767,-1.04958 -0.396278,-0.0419 -0.559412,0.12304 -0.61175,0.6184 z"
       style="fill:#242424;stroke-width:0.27169377"
       sodipodi:nodetypes="scccccsccccsccscccccsscscccsccccscssccscccssccscccscsccccsssss" />
    <path
       style="opacity:1;fill:#d82a17;fill-opacity:1;stroke:#000000;stroke-width:0.04871057;stroke-linecap:square;stroke-linejoin:miter;stroke-miterlimit:4;stroke-dasharray:none;stroke-opacity:1;paint-order:fill markers stroke"
       d="m -21.472712,291.85649 c 0.276783,-0.0304 0.52047,-0.20358 0.728611,-0.37929 0.134606,-0.13365 0.335461,-0.34709 0.197293,-0.542 -0.175344,-0.20382 -0.487878,-0.10429 -0.686156,0.009 -0.269695,0.16936 -0.410184,0.5177 -0.368867,0.82721 0.01834,0.0544 0.07488,0.0821 0.129118,0.085 z"
       id="path16437"
       inkscape:connector-curvature="0" />
    <path
       style="opacity:1;fill:#d82a17;fill-opacity:1;stroke:#000000;stroke-width:0.06888715;stroke-linecap:square;stroke-linejoin:miter;stroke-miterlimit:4;stroke-dasharray:none;stroke-opacity:1;paint-order:fill markers stroke"
       d="m -26.855572,298.46247 c 0.419763,-0.0618 0.71458,-0.42649 0.993164,-0.71605 0.369959,-0.43048 0.687414,-0.92159 0.891201,-1.44922 -0.07046,-0.12741 -0.26613,-0.0135 -0.37938,-0.0226 -0.51652,0.105 -1.074208,0.11594 -1.547292,0.36848 -0.340453,0.20386 -0.275841,0.64853 -0.318688,0.98481 -0.01323,0.29611 0.0075,0.7473 0.360993,0.83461 z"
       id="path16439"
       inkscape:connector-curvature="0" />
    <path
       style="opacity:1;fill:#d82a17;fill-opacity:1;stroke:#000000;stroke-width:0.06888715;stroke-linecap:square;stroke-linejoin:miter;stroke-miterlimit:4;stroke-dasharray:none;stroke-opacity:1;paint-order:fill markers stroke"
       d="m -28.821518,297.37423 c 0.329586,-0.0528 0.580074,-0.32865 0.79179,-0.56755 0.18367,-0.23394 0.125644,-0.63657 -0.183044,-0.72862 -0.251854,-0.0839 -0.620882,-0.089 -0.73923,0.20154 -0.112891,0.29634 -0.166194,0.65188 -0.05015,0.95441 0.03733,0.0659 0.10301,0.12984 0.180634,0.14022 z"
       id="path16441"
       inkscape:connector-curvature="0" />
    <path
       style="opacity:1;fill:#d82a17;fill-opacity:1;stroke:#000000;stroke-width:0.06888715;stroke-linecap:square;stroke-linejoin:miter;stroke-miterlimit:4;stroke-dasharray:none;stroke-opacity:1;paint-order:fill markers stroke"
       d="m -30.669863,296.08099 c 0.390383,-0.0441 0.706502,-0.33919 0.956638,-0.6228 0.137489,-0.13193 0.200958,-0.3555 0.0539,-0.5062 -0.10895,-0.16841 -0.327234,-0.4162 -0.539306,-0.24398 -0.308294,0.25144 -0.565873,0.60239 -0.661609,0.99218 -0.02413,0.14399 0.0098,0.36433 0.190367,0.3808 z"
       id="path16443"
       inkscape:connector-curvature="0" />
    <path
       style="opacity:1;fill:#ffffff;fill-opacity:1;stroke:#000000;stroke-width:0.25;stroke-linecap:square;stroke-linejoin:miter;stroke-miterlimit:4;stroke-dasharray:none;stroke-opacity:1;paint-order:fill markers stroke"
       d="m -26.373505,295.64744 c 2.011375,-0.29463 3.397172,-2.15709 4.108018,-3.93206 0.736078,-2.28387 0.185109,-4.76276 -0.516248,-6.98665 -0.566617,-1.73223 -1.585364,-3.46132 -3.345532,-4.18631 -2.646788,-1.25499 -5.852971,-1.33963 -8.556251,-0.21877 -1.802006,0.83686 -3.713044,2.17848 -4.018691,4.2963 -0.02827,0.52001 -0.366717,1.24848 0.04909,1.67173 2.085473,0.51499 4.378687,0.1534 6.376098,1.06635 1.717972,0.79685 1.867129,2.90896 2.187463,4.53305 0.295109,1.47589 0.967456,3.18346 2.586922,3.58996 0.363774,0.11586 0.74646,0.18364 1.129131,0.1664 z m 1.777928,-2.53033 c -0.699418,0.0229 -0.661028,-1.01315 -0.308508,-1.3777 0.492375,-0.25312 1.371106,-0.11651 1.232224,0.62141 0.02465,0.50135 -0.457113,0.81632 -0.923716,0.75629 z"
       id="path16538"
       inkscape:connector-curvature="0" />
  </g>
</svg>
