<?xml version="1.0" encoding="UTF-8" standalone="no"?>
<!-- Created with Inkscape (http://www.inkscape.org/) -->

<svg
   xmlns:osb="http://www.openswatchbook.org/uri/2009/osb"
   xmlns:dc="http://purl.org/dc/elements/1.1/"
   xmlns:cc="http://creativecommons.org/ns#"
   xmlns:rdf="http://www.w3.org/1999/02/22-rdf-syntax-ns#"
   xmlns:svg="http://www.w3.org/2000/svg"
   xmlns="http://www.w3.org/2000/svg"
   xmlns:sodipodi="http://sodipodi.sourceforge.net/DTD/sodipodi-0.dtd"
   xmlns:inkscape="http://www.inkscape.org/namespaces/inkscape"
   width="136"
   height="136"
   viewBox="0 0 35.983333 35.983334"
   version="1.1"
   id="svg8"
   inkscape:version="0.92.4 5da689c313, 2019-01-14"
   sodipodi:docname="WhiteGold.svg">
  <defs
     id="defs2">
    <linearGradient
       id="linearGradient8793"
       osb:paint="solid">
      <stop
         style="stop-color:#e8bc5d;stop-opacity:1;"
         offset="0"
         id="stop8791" />
    </linearGradient>
  </defs>
  <sodipodi:namedview
     id="base"
     pagecolor="#ffffff"
     bordercolor="#666666"
     borderopacity="1.0"
     inkscape:pageopacity="0.0"
     inkscape:pageshadow="2"
     inkscape:zoom="1.4"
     inkscape:cx="-16.214286"
     inkscape:cy="27.851755"
     inkscape:document-units="mm"
     inkscape:current-layer="layer1"
     showgrid="false"
     units="px"
     inkscape:window-width="679"
     inkscape:window-height="720"
     inkscape:window-x="0"
     inkscape:window-y="46"
     inkscape:window-maximized="0"
     inkscape:lockguides="true"
     inkscape:snap-object-midpoints="true"
     showguides="true"
     inkscape:snap-global="false"
     inkscape:guide-bbox="true" />
  <metadata
     id="metadata5">
    <rdf:RDF>
      <cc:Work
         rdf:about="">
        <dc:format>image/svg+xml</dc:format>
        <dc:type
           rdf:resource="http://purl.org/dc/dcmitype/StillImage" />
        <dc:title />
      </cc:Work>
    </rdf:RDF>
  </metadata>
  <g
     inkscape:label="Layer 1"
     inkscape:groupmode="layer"
     id="layer1"
     transform="translate(0,-261.01665)">
    <g
       id="g868"
       transform="matrix(-0.85556359,0,0,-0.85556359,33.384681,517.66367)">
      <polygon
         transform="matrix(-1.11111,0,0,-1.11111,33.38054,296.17683)"
         style="fill:#008000;fill-opacity:1;stroke:#000000;stroke-width:0.5291667;stroke-miterlimit:4;stroke-dasharray:none"
         points="0,0 27.7,0 23.855018,27.358471 13.85,31 3.844982,27.358471 "
         id="shogi_trapezoid" />
      <path
         transform="matrix(0.43818856,-0.18961029,0.18961029,0.43818856,-27.167004,152.81062)"
         d="m -21.807339,302.17636 -0.823611,9.78702 -4.862861,-8.53326 -9.562515,2.24105 6.61291,-7.26178 -5.086348,-8.40197 8.949864,4.04524 6.418979,-7.43376 -1.08159,9.76188 9.053495,3.80765 z"
         inkscape:randomized="0"
         inkscape:rounded="0"
         inkscape:flatsided="false"
         sodipodi:arg2="1.3537885"
         sodipodi:arg1="0.72547001"
         sodipodi:r2="13.387508"
         sodipodi:r1="4.9533782"
         sodipodi:cy="298.88986"
         sodipodi:cx="-25.513395"
         sodipodi:sides="5"
         id="path7549-9-7"
         style="opacity:1;fill:#dfa839;fill-opacity:1;stroke:#000000;stroke-width:0.52361184;stroke-linecap:square;stroke-linejoin:miter;stroke-miterlimit:1;stroke-dasharray:none;stroke-opacity:1;paint-order:fill markers stroke"
         sodipodi:type="star" />
      <path
         inkscape:connector-curvature="0"
         id="rect7555-3-9"
         d="m 11.159586,267.45345 v 7.95172 h -0.01526 l 5.379059,4.79574 h 3.709765 l 5.471936,-4.79574 h -0.01858 v -7.95172 z"
         style="opacity:1;fill:#dfa839;fill-opacity:1;stroke:#000000;stroke-width:0.25;stroke-linecap:square;stroke-linejoin:miter;stroke-miterlimit:1;stroke-dasharray:none;stroke-opacity:1;paint-order:fill markers stroke" />
      <path
         inkscape:connector-curvature="0"
         id="path7566-6-2"
         d="m 15.84825,280.39629 -0.02959,1.96752 h 4.970844 l 0.05918,-2.00649 v 0 z"
         style="fill:#dfa839;fill-opacity:1;fill-rule:evenodd;stroke:#000000;stroke-width:0.25;stroke-linecap:butt;stroke-linejoin:miter;stroke-opacity:1" />
      <g
         style="fill:none;stroke:#000000;stroke-width:5.50695848"
         id="layer1-2"
         inkscape:label="Layer 1"
         transform="matrix(0.04539711,0,0,0.04539711,11.462853,266.28432)">
        <g
           style="fill:none;stroke:#000000;stroke-width:5.50695848"
           id="g2775"
           transform="translate(398.78,217.13)">
          <path
             inkscape:connector-curvature="0"
             id="path2514"
             style="fill:#dfa839;fill-opacity:1;stroke:#000000;stroke-width:5.50695848"
             d="m -250.86205,33.79484 c -0.69342,-0.45939 -2.07159,-1.6122 -3.05971,-2.548316 -1.80289,-1.707544 -1.80289,-1.707544 -2.73034,-0.684751 -0.97946,1.092135 -3.98716,1.421509 -4.55923,0.511397 -0.17336,-0.286036 -1.43018,-1.083468 -2.79102,-1.768219 -5.90273,-2.999039 -6.01541,-12.706908 -0.40738,-34.7836423 1.12681,-4.4552184 2.35763,-9.6211907 2.72167,-11.4760877 0.37271,-1.846229 1.14414,-4.879938 1.71621,-6.734834 1.50819,-4.905941 1.42151,-5.807386 -0.39005,-3.865813 -1.30016,1.395507 -1.41284,1.794223 -1.19614,4.342538 0.15602,1.941574 0.0433,2.817016 -0.36405,2.817016 -0.71075,0 -3.05971,-2.288284 -3.05971,-2.973035 0,-0.277368 -1.30016,0.736758 -2.87769,2.244945 -2.85169,2.72167 -3.83981,3.215731 -4.43788,2.236277 -0.20803,-0.338042 -0.65875,-0.320707 -1.32617,0.03467 -0.55473,0.294703 -1.62086,0.494061 -2.36629,0.433387 -2.11493,-0.173355 -5.77272,1.438845 -9.17047,4.039167 -0.97079,0.745425 -2.61766,1.872231 -3.65779,2.504976 -3.71846,2.2622807 0.58074,3.0250419 5.52135,0.979455 6.24945,-2.591654 12.10017,3.3717511 8.19102,8.347034 -1.47352,1.87223175 -1.98491,1.65553825 -1.98491,-0.8407708 0,-2.435635 -0.65875,-3.3804187 -2.3663,-3.3804187 -0.88411,0 -1.16147,0.2860354 -1.16147,1.1788127 0,2.4529704 -3.56245,3.735796 -6.21477,2.2362769 -0.60675,-0.3467096 -2.34896,-0.8841095 -3.87448,-1.1961482 -1.52553,-0.3120386 -3.84588,-0.9881223 -5.15384,-1.499519 -2.94097,-1.1441417 -3.54597,-0.6760837 -1.66074,1.2914933 1.59313,1.6642061 1.05573,3.0770478 -1.42064,3.7444638 -0.64575,0.16468695 -1.48392,1.13547385 -2.03432,2.3402898 -1.0306,2.2536125 -3.18106,5.0272898 -3.90049,5.0272898 -0.25223,0 -0.45939,-1.4648486 -0.45939,-3.250403 0,-3.03370915 -0.10054,-3.31974455 -1.51338,-4.3252024 -1.84797,-1.3174965 -1.91297,-2.236277 -0.23663,-3.33708 2.12186,-1.3868384 0.99159,-1.3781706 -1.78382,0.00867 -1.43105,0.7194224 -2.79275,1.3088289 -3.02591,1.3088289 -0.23316,0 -1.10514,0.6847514 -1.93724,1.5168545 -2.96697,2.9730349 -6.13069,1.57752865 -6.13069,-2.6869996 0,-2.5223123 -0.39525,-2.8863574 -1.6226,-1.4735157 -1.68155,1.9242382 -2.00225,3.0943832 -1.17448,4.2818636 1.70061,2.42696725 0.93525,3.4150897 -1.65294,2.11492865 -8.30543,-4.14317985 -3.38562,-11.32006855 7.76023,-11.32006855 3.26253,0 5.84292,-0.216694 6.02148,-0.502729 0.17162,-0.277368 -0.11702,-0.511397 -0.64142,-0.511397 -0.5244,0 -1.96584,-0.511397 -3.20359,-1.135474 -1.75262,-0.892777 -2.54745,-1.040129 -3.58672,-0.667416 -2.47724,0.866774 -3.91868,-1.794222 -2.07419,-3.831141 0.78877,-0.875442 0.76277,-0.927448 -0.46372,-0.927448 -1.04013,0 -1.36777,0.312038 -1.63907,1.551525 -0.44812,2.036919 -1.6616,2.470306 -2.84562,1.005458 -2.47377,-3.059712 0.5426,-7.601608 5.04636,-7.601608 2.58905,0 3.76267,0.615409 6.88565,3.588444 5.18851,4.931945 14.59821,4.827932 19.34467,-0.225361 1.1268,-1.196148 1.1268,-1.196148 -0.15602,-2.036919 -2.35243,-1.542858 -1.77169,-3.475764 0.91878,-3.077048 3.32841,0.502729 6.11942,-1.282825 8.07833,-5.157305 0.81477,-1.603532 0.81477,-1.603532 -0.82343,-1.768219 -1.63821,-0.156019 -1.63821,-0.156019 -2.07159,-4.52456 -0.47673,-4.79326 0.0347,-4.940612 -10.07365,2.964367 -4.94148,3.87448 -7.02001,4.550563 -9.1436,2.999038 -0.96385,-0.710755 -0.95605,-7.618943 0.0113,-10.175927 0.36491,-0.962119 0.32764,-0.962119 -0.83384,0.07801 -13.79297,12.342861 -24.59645,3.744464 -12.79185,-10.175927 1.52639,-1.80289 2.68353,-3.276406 2.57172,-3.276406 -0.11182,0 -1.08087,0.364045 -2.15307,0.814768 -12.83779,5.365331 -17.43776,-7.471592 -5.23531,-14.61381 2.26921,-1.334832 2.26921,-1.334832 0.0945,-1.334832 -5.40433,-0.01734 -10.68732,-3.259071 -10.68732,-6.570147 0,-3.051045 2.24928,-4.498557 10.59285,-6.812844 2.35762,-0.650081 3.88054,-1.204816 3.38475,-1.222151 -2.3871,-0.09535 -12.3706,-6.778173 -14.23763,-9.534515 -2.66793,-3.926486 -1.54719,-6.544146 3.0051,-7.012206 2.81529,-0.28603 2.81529,-0.28603 0.28691,-2.96437 -5.45028,-5.76578 -2.73814,-14.02267 3.36655,-10.247 2.56391,1.58533 2.49631,0.92138 -0.2427,-2.3897 -7.12748,-8.6166 -7.64408,-19.414 -0.64575,-13.52168 1.92771,1.62261 1.93204,1.68415 -0.26263,-3.40728 -4.74039,-10.99503 -4.39541,-16.98704 0.64748,-11.25246 2.22674,2.53184 2.73814,2.37322 1.45011,-0.45073 -4.22205,-9.26148 -2.79274,-12.26918 3.01118,-6.33525 4.41101,4.50983 15.89837,13.7323 15.85503,12.72858 -0.01,-0.2271 -0.34238,-0.98032 -0.73849,-1.67461 -0.81477,-1.42584 -1.0202,-6.56148 -0.26264,-6.56148 0.27217,0 0.93265,0.85204 1.46918,1.89304 1.49952,2.91062 4.36335,5.97814 9.3629,10.0277 22.63493,18.33141 26.7001,25.78654 20.05195,36.755567 -2.40963,3.969825 -2.49631,4.689247 -0.95345,7.852972 1.17014,2.392296 8.41637,3.987161 8.41637,1.854897 0,-0.390049 0.55474,-1.53419 1.24816,-2.539648 1.23948,-1.837561 1.23948,-1.837561 -0.46806,-1.837561 -0.93612,0 -2.07159,-0.138684 -2.50498,-0.312039 -1.10947,-0.424719 -1.00546,-1.707545 0.13869,-1.707545 2.93836,0 9.2138,-9.925433 6.44879,-10.194133 -1.20481,-0.11615 -1.62086,-0.42906 -1.75088,-1.28716 -0.12135,-0.86504 0.0347,-1.0592 0.65008,-0.8217 0.45072,0.17075 1.20482,-0.0303 1.68154,-0.44639 0.46806,-0.41692 1.57753,-1.12334 2.46164,-1.56973 2.46164,-1.24642 2.58299,-2.53012 0.45939,-4.88341 -1.05746,-1.16928 -1.81156,-2.52318 -1.81156,-3.25993 0,-1.52466 0.052,-1.52813 3.52777,-0.2089 2.4183,0.92225 2.99904,0.97426 4.67192,0.42039 4.09117,-1.3513 2.56565,-4.98395 -2.54832,-6.04488 -7.17689,-1.49259 -11.13805,-4.78373 -8.43371,-7.02607 0.60674,-0.50447 1.1008,-0.33718 2.66966,0.91011 1.92424,1.52205 8.74575,3.63698 11.65811,3.61098 1.23949,-0.0104 1.21349,-0.0598 -0.44205,-0.8139 -6.77817,-3.08312 -10.09792,-4.93715 -11.58877,-6.47394 -2.28828,-2.36716 -1.62953,-2.78494 1.3175,-0.83123 2.38363,1.57839 4.17785,2.20507 8.00032,2.79534 2.01092,0.31117 2.01092,0.31117 0.82344,-0.70988 -0.65008,-0.56081 -1.63821,-1.02106 -2.19294,-1.02106 -1.46485,0 -3.71846,-1.77602 -5.46068,-4.31914 -2.03692,-2.96437 -3.77047,-3.42982 -5.35666,-1.44144 -2.58299,3.2504 -4.28187,-2.19814 -1.76822,-5.66871 4.53323,-6.23644 14.92585,-5.58809 29.79102,1.85663 3.26774,1.63561 6.91686,3.12992 8.11301,3.32148 2.25361,0.36058 1.78555,1.70928 -0.58941,1.70928 -1.21348,0 -1.17014,0.23143 0.5634,3.05191 1.37817,2.23541 3.05972,6.85965 3.05972,8.39557 0,0.36578 -0.47673,0.66569 -1.06614,0.66569 -1.02279,0 -1.05746,0.19242 -0.88411,4.92067 0.18203,4.92155 0.18203,4.92155 -1.04012,4.92155 -1.15281,0 -3.15506,2.71386 -4.35988,5.9296 -0.18202,0.48626 -0.5374,0.88411 -0.78009,0.88411 -0.69342,0 -0.49407,1.659 0.32937,2.75027 0.49406,0.64575 1.35217,0.9838 2.50498,0.9838 0.97078,0 1.76822,0.13955 1.76822,0.30943 0,0.70036 -3.08572,2.52058 -4.2732,2.52058 -1.40417,0 -1.64687,0.97079 -0.8061,3.189733 0.34671,0.918781 1.40417,1.594865 4.16052,2.643661 3.97849,1.525522 6.46613,3.536438 6.46613,5.252651 0,1.91557 5.52135,1.282825 6.49214,-0.745426 0.40738,-0.832103 0.92745,-1.91557 1.16147,-2.400964 0.7541,-1.560193 -0.65008,-5.478012 -2.713,-7.540935 -0.93611,-0.93612 -1.05746,-1.68154 -1.1008,-6.6707 -0.078,-9.52845 2.40963,-12.75545 22.15474,-28.74916 5.00129,-4.04957 7.87031,-7.11708 9.36983,-10.02771 0.52873,-1.041 1.19615,-1.89303 1.46485,-1.89303 0.75409,0 0.55473,5.13563 -0.26003,6.56147 -0.39872,0.69429 -0.72809,1.44752 -0.73676,1.67461 -0.0433,1.00373 11.44141,-8.21875 15.85329,-12.72857 5.79872,-5.93394 7.2289,-2.92623 3.00771,6.33525 -1.28283,2.82395 -0.77143,2.98257 1.44751,0.45072 5.04463,-5.73458 5.39134,0.25743 0.65008,11.25246 -2.19293,5.09143 -2.18427,5.02989 -0.26003,3.40729 6.99487,-5.89233 6.48347,4.90507 -0.65008,13.52167 -2.73901,3.31108 -2.79968,3.97503 -0.2427,2.3897 6.11076,-3.77567 8.82376,4.48122 3.37175,10.24787 -2.53098,2.6766 -2.53098,2.6766 0.28604,2.96264 4.55056,0.47672 5.6687,3.085717 3.00771,7.020871 -1.87224,2.747673 -11.85747,9.430501 -14.2411,9.525846 -0.49406,0.01734 1.02279,0.572071 3.38909,1.222151 8.33836,2.314287 10.59197,3.7618 10.59197,6.812844 0,3.311077 -5.28732,6.56148 -10.68732,6.570147 -2.1756,0 -2.1756,0 0.0953,1.334832 12.19551,7.142218 7.6016,19.979141 -5.24399,14.61381 -1.06613,-0.442055 -2.03692,-0.814767 -2.1496,-0.814767 -0.11268,0 1.0488,1.473515 2.57432,3.276405 11.80546,13.920391 0.99679,22.518789 -12.79358,10.175927 -1.16148,-1.040128 -1.19615,-1.040128 -0.83211,-0.07801 0.96212,2.556983 0.97079,9.465172 0.009,10.175926 -2.12359,1.551526 -4.20385,0.875442 -9.14446,-2.999037 -10.10659,-7.904979 -9.59519,-7.757628 -10.07192,-2.964368 -0.43338,4.368542 -0.43338,4.368542 -2.07159,4.524561 -1.99358,0.199358 -1.99358,0.164687 -0.15602,2.83435 2.19294,3.181061 3.77047,4.047835 7.24623,3.978493 3.53644,-0.06934 4.34254,0.88411 2.19294,2.600322 -1.35217,1.083468 -1.35217,1.083468 0.0433,2.357626 5.33066,4.897273 13.89439,4.888605 19.04303,-0.01734 3.12905,-2.973035 4.29919,-3.579777 6.89085,-3.579777 4.49856,0 7.51493,4.541896 5.04462,7.601609 -1.18748,1.464848 -2.40096,1.031461 -2.84301,-1.005458 -0.27737,-1.239487 -0.60675,-1.551526 -1.64688,-1.551526 -1.22215,0 -1.24815,0.05201 -0.45939,0.927448 1.84623,2.036919 0.39872,4.697916 -2.07159,3.822474 -1.04012,-0.364045 -1.83756,-0.216694 -3.58844,0.676084 -1.23949,0.624077 -2.67833,1.135474 -3.20706,1.135474 -0.52007,0 -0.81477,0.225361 -0.64142,0.511396 0.18203,0.286036 2.76501,0.502729 6.02408,0.502729 11.14672,0 16.06133,7.1768893 7.75763,11.3200692 -2.58299,1.29149315 -3.35442,0.3120386 -1.65554,-2.1149287 0.8321,-1.1874804 0.5114,-2.3576253 -1.17014,-4.2905313 -1.23949,-1.4128417 -1.62087,-1.0401289 -1.62087,1.5688609 0,4.1951863 -3.18106,5.5473538 -6.12809,2.600322 -0.84077,-0.8321031 -1.70755,-1.5168544 -1.94158,-1.5168544 -0.23403,0 -1.59486,-0.5894064 -3.02504,-1.3088288 -2.77367,-1.3955062 -3.90915,-1.3955062 -1.78555,-0.00867 1.68154,1.1008031 1.6122,2.0195834 -0.23403,3.3370799 -1.41284,1.005458 -1.51686,1.2914934 -1.51686,4.32520245 0,4.46388625 -1.48218,3.82247345 -4.53322,-1.94157375 -0.70209,-1.3174965 -1.62087,-2.3836287 -2.07159,-2.3836287 -2.08893,0 -2.74768,-1.9329059 -1.20482,-3.5364379 1.8809,-1.967577 1.27416,-2.435635 -1.66421,-1.2914933 -1.30882,0.5113967 -3.62311,1.1874804 -5.14863,1.4995191 -1.52553,0.3120386 -3.27641,0.8494385 -3.88315,1.1874804 -2.70434,1.5341899 -6.2061,0.234029 -6.2061,-2.3142866 0,-0.8060999 -0.31204,-1.0921353 -1.16148,-1.0921353 -1.70755,0 -2.37496,0.9447837 -2.37496,3.3804187 0,2.4963091 -0.50273,2.7130027 -1.97625,0.8407707 -3.90915,-4.9752836 1.94158,-10.9386876 8.18235,-8.3470336 4.94061,2.045586 9.24848,1.282825 5.52135,-0.988123 -1.04013,-0.632744 -2.687,-1.750883 -3.65779,-2.496309 -3.29374,-2.522312 -6.63948,-4.013164 -9.57785,-4.264528 -3.02504,-0.2687 -5.26998,-0.840771 -6.11075,-1.577529 -0.71076,-0.624077 -0.96212,-0.468058 -2.15827,1.3435 -1.68154,2.539648 -2.13227,2.296951 -2.43564,-1.308829 -0.19936,-2.374961 -0.49406,-3.077048 -1.82889,-4.33387 -2.01092,-1.872232 -2.60899,-0.944784 -1.43885,2.244945 0.42472,1.170145 1.26549,4.169183 1.8549,6.67416 0.58941,2.496309 1.95024,6.925524 3.00771,9.8378851 2.86035,7.83563705 5.07063,18.9043419 5.07063,25.4051469 0,7.549602 -3.08572,11.770791 -8.97112,12.264852 -3.5711,0.294703 -5.60802,1.282826 -6.92552,3.371751 -1.20482,1.906903 -3.37175,2.34029 -5.28732,1.040129 z" />
        </g>
      </g>
    </g>
  </g>
</svg>
