<?xml version="1.0" encoding="UTF-8" standalone="no"?>
<!-- Created with Inkscape (http://www.inkscape.org/) -->

<svg
   xmlns:osb="http://www.openswatchbook.org/uri/2009/osb"
   xmlns:dc="http://purl.org/dc/elements/1.1/"
   xmlns:cc="http://creativecommons.org/ns#"
   xmlns:rdf="http://www.w3.org/1999/02/22-rdf-syntax-ns#"
   xmlns:svg="http://www.w3.org/2000/svg"
   xmlns="http://www.w3.org/2000/svg"
   xmlns:sodipodi="http://sodipodi.sourceforge.net/DTD/sodipodi-0.dtd"
   xmlns:inkscape="http://www.inkscape.org/namespaces/inkscape"
   width="136"
   height="136"
   viewBox="0 0 35.983333 35.983334"
   version="1.1"
   id="svg8"
   inkscape:version="0.92.4 5da689c313, 2019-01-14"
   sodipodi:docname="WhiteGoldSilver.svg">
  <defs
     id="defs2">
    <linearGradient
       id="linearGradient8793"
       osb:paint="solid">
      <stop
         style="stop-color:#e8bc5d;stop-opacity:1;"
         offset="0"
         id="stop8791" />
    </linearGradient>
  </defs>
  <sodipodi:namedview
     id="base"
     pagecolor="#ffffff"
     bordercolor="#666666"
     borderopacity="1.0"
     inkscape:pageopacity="0.0"
     inkscape:pageshadow="2"
     inkscape:zoom="1.4"
     inkscape:cx="77.305301"
     inkscape:cy="60.298732"
     inkscape:document-units="mm"
     inkscape:current-layer="layer1"
     showgrid="false"
     units="px"
     inkscape:window-width="1362"
     inkscape:window-height="720"
     inkscape:window-x="0"
     inkscape:window-y="46"
     inkscape:window-maximized="0"
     inkscape:lockguides="true"
     inkscape:snap-object-midpoints="true"
     showguides="true"
     inkscape:snap-global="false"
     inkscape:guide-bbox="true" />
  <metadata
     id="metadata5">
    <rdf:RDF>
      <cc:Work
         rdf:about="">
        <dc:format>image/svg+xml</dc:format>
        <dc:type
           rdf:resource="http://purl.org/dc/dcmitype/StillImage" />
        <dc:title />
      </cc:Work>
    </rdf:RDF>
  </metadata>
  <g
     inkscape:label="Layer 1"
     inkscape:groupmode="layer"
     id="layer1"
     transform="translate(0,-261.01665)">
    <g
       id="g491"
       transform="matrix(0.85556359,0,0,0.85556359,2.5986519,40.352967)">
      <polygon
         transform="matrix(-1.11111,0,0,-1.11111,33.38054,296.17683)"
         style="fill:#008000;fill-opacity:1;stroke:#000000;stroke-width:0.5291667;stroke-miterlimit:4;stroke-dasharray:none"
         points="13.85,31 3.844982,27.358471 0,0 27.7,0 23.855018,27.358471 "
         id="shogi_trapezoid" />
      <path
         transform="matrix(0.63843498,-0.27625971,0.27625971,0.63843498,-48.297296,87.552055)"
         d="m -21.807339,302.17636 -0.823611,9.78702 -4.862861,-8.53326 -9.562515,2.24105 6.61291,-7.26178 -5.086348,-8.40197 8.949864,4.04524 6.418979,-7.43376 -1.08159,9.76188 9.053495,3.80765 z"
         inkscape:randomized="0"
         inkscape:rounded="0"
         inkscape:flatsided="false"
         sodipodi:arg2="1.3537885"
         sodipodi:arg1="0.72547001"
         sodipodi:r2="13.387508"
         sodipodi:r1="4.9533782"
         sodipodi:cy="298.88986"
         sodipodi:cx="-25.513395"
         sodipodi:sides="5"
         id="path7549-9-7"
         style="opacity:1;fill:#dfa839;fill-opacity:1;stroke:#000000;stroke-width:0.32556796;stroke-linecap:square;stroke-linejoin:miter;stroke-miterlimit:1;stroke-dasharray:none;stroke-opacity:1;paint-order:fill markers stroke"
         sodipodi:type="star" />
      <g
         transform="translate(-4.4653009,-1.1702845)"
         id="g15108">
        <path
           style="fill:#ff0000;fill-opacity:1;stroke:#000000;stroke-width:0.25"
           d="m 16.815373,275.81499 0.0069,-2.71322 0.357676,-0.28302 c 1.815919,-1.43691 3.424552,-3.4258 4.491052,-5.55268 0.212827,-0.42444 0.614973,-1.34959 0.700758,-1.61216 0.02902,-0.0887 0.06436,-0.16153 0.07854,-0.16153 0.01408,0 0.04955,0.0726 0.07854,0.16153 0.08578,0.26257 0.487933,1.18772 0.700762,1.61216 1.0665,2.12688 2.675133,4.11577 4.491052,5.55268 l 0.357678,0.28302 0.0069,2.71322 c 0.0037,1.49225 0.0027,2.71319 -0.0025,2.71319 -0.05856,0 -1.061333,-0.59943 -1.634018,-0.97677 -1.247196,-0.82177 -2.30786,-1.693 -3.406572,-2.79816 l -0.591832,-0.59528 -0.591831,0.59528 c -0.567276,0.57061 -1.008424,0.97428 -1.606612,1.47012 -0.731749,0.60657 -1.627024,1.24429 -2.443978,1.74085 -0.369558,0.22475 -0.962695,0.56396 -0.985783,0.56396 -0.0074,0 -0.01037,-1.22094 -0.0067,-2.71319 z m 0.940301,1.20022 c 1.041616,-0.66234 1.872269,-1.29492 2.849852,-2.17023 0.344414,-0.30838 1.185971,-1.15159 1.383504,-1.38622 0.0761,-0.0904 0.210974,-0.24229 0.299757,-0.33751 l 0.161405,-0.17313 0.161405,0.17313 c 0.08877,0.0953 0.223668,0.24714 0.299759,0.33751 0.196105,0.2329 1.035224,1.07403 1.394687,1.398 0.329351,0.2968 1.049081,0.89981 1.295457,1.08535 0.395487,0.29781 0.641386,0.47448 0.953266,0.68489 0.410715,0.27706 0.835731,0.54842 0.858959,0.54842 0.0094,0 0.01704,-0.30878 0.01704,-0.68619 v -0.68622 l -0.259983,-0.1766 c -0.458469,-0.31142 -1.257962,-0.92221 -1.613918,-1.23299 -0.809844,-0.70702 -1.806803,-1.71054 -2.261239,-2.27613 -0.06765,-0.0842 -0.13026,-0.16005 -0.139151,-0.16845 -0.0089,-0.01 -0.06387,-0.0776 -0.122183,-0.15362 -0.05831,-0.0761 -0.114008,-0.14523 -0.123764,-0.15362 -0.0099,-0.01 -0.112723,-0.14326 -0.228757,-0.29977 -0.116058,-0.15634 -0.220285,-0.2844 -0.231597,-0.2844 -0.01136,0 -0.115539,0.12794 -0.231597,0.2844 -0.116059,0.15634 -0.219001,0.29129 -0.228758,0.29977 -0.0099,0.01 -0.06548,0.0776 -0.123762,0.15362 -0.05831,0.0761 -0.113292,0.14523 -0.122183,0.15362 -0.0089,0.01 -0.0715,0.0842 -0.139151,0.16845 -0.454436,0.56559 -1.451393,1.56911 -2.261237,2.27613 -0.355956,0.31078 -1.155449,0.92157 -1.613918,1.23299 l -0.259983,0.1766 v 0.68622 c 0,0.37741 0.0077,0.68619 0.01704,0.68619 0.0094,0 0.130457,-0.0721 0.269015,-0.16029 z m -0.05797,-2.11488 c 0.983068,-0.73414 1.423241,-1.10486 2.135373,-1.79856 0.590868,-0.57555 1.043118,-1.06707 1.50095,-1.63126 0.08123,-0.10003 0.178843,-0.21661 0.216877,-0.25889 0.03804,-0.0422 0.06918,-0.0864 0.06918,-0.0981 0,-0.0123 0.01877,-0.0398 0.04149,-0.0627 0.06891,-0.0689 0.630591,-0.85382 0.702323,-0.98146 0.03678,-0.0654 0.07563,-0.11905 0.0863,-0.11905 0.01062,0 0.04952,0.0536 0.0863,0.11905 0.07172,0.12769 0.633421,0.91258 0.702325,0.98146 0.02272,0.0222 0.04149,0.0511 0.04149,0.0627 0,0.0124 0.03115,0.0558 0.06918,0.0981 0.03804,0.0422 0.135644,0.15881 0.216877,0.25889 0.455451,0.56125 0.932494,1.07863 1.534061,1.66376 0.665556,0.64737 1.14754,1.05151 2.136843,1.79177 l 0.178174,0.13337 0.0086,-0.76357 0.0086,-0.76361 -0.07288,-0.0615 c -0.04009,-0.0338 -0.26533,-0.22007 -0.500536,-0.41405 -0.463945,-0.38245 -1.644475,-1.54545 -2.003343,-1.9736 -0.925304,-1.10387 -1.64921,-2.17124 -2.222554,-3.27704 -0.08985,-0.17338 -0.172198,-0.31512 -0.182941,-0.31512 -0.01087,0 -0.07913,0.1141 -0.15197,0.25365 -0.535103,1.02498 -1.12011,1.9262 -1.831267,2.82115 -0.756418,0.95188 -1.807156,2.00445 -2.774694,2.77949 l -0.222904,0.17857 v 0.76666 c 0,0.63974 0.0069,0.76261 0.04201,0.74209 0.02322,-0.0123 0.10687,-0.0731 0.186102,-0.13214 z"
           id="path13694"
           inkscape:connector-curvature="0" />
        <path
           style="opacity:1;fill:#ff0000;fill-opacity:1;stroke:#ff0000;stroke-width:0.02525381;stroke-linecap:square;stroke-linejoin:miter;stroke-miterlimit:1;stroke-dasharray:none;stroke-opacity:1;paint-order:fill markers stroke"
           d="m 17.570821,276.43257 0.0051,-0.62575 0.871211,-0.63476 c 1.025331,-0.74706 2.936082,-2.60069 3.562034,-3.45555 0.220497,-0.30113 0.415938,-0.54679 0.434313,-0.54591 0.01837,8.8e-4 0.243883,0.27417 0.50113,0.60729 0.922066,1.19406 2.778911,2.93702 4.044545,3.79649 l 0.398811,0.27083 v 0.60602 c 0,0.54043 -0.01216,0.60134 -0.112412,0.56288 -0.231647,-0.0889 -1.602511,-1.09327 -2.391975,-1.75251 -0.450144,-0.37589 -1.181816,-1.06666 -1.625937,-1.53505 l -0.807493,-0.85162 -0.848251,0.88485 c -1.157562,1.20751 -2.499548,2.31563 -3.85234,3.18099 l -0.183747,0.11754 z"
           id="path13700"
           inkscape:connector-curvature="0" />
        <path
           style="opacity:1;fill:#ff0000;fill-opacity:1;stroke:#ff0000;stroke-width:0.02525381;stroke-linecap:square;stroke-linejoin:miter;stroke-miterlimit:1;stroke-dasharray:none;stroke-opacity:1;paint-order:fill markers stroke"
           d="m 17.565766,274.21932 v -0.70183 l 0.229079,-0.17473 c 0.759158,-0.57904 2.200486,-2.0563 2.909032,-2.98155 0.504647,-0.659 1.14768,-1.64201 1.448153,-2.21381 0.132627,-0.25239 0.266873,-0.45889 0.298323,-0.45889 0.03145,0 0.122176,0.12779 0.201612,0.28398 0.845612,1.66263 2.537616,3.74161 4.184713,5.1418 l 0.551243,0.46861 -0.0049,0.37697 c -0.0027,0.20733 -0.02528,0.50235 -0.05011,0.65558 l -0.04516,0.27862 -0.634766,-0.49914 c -1.397836,-1.09912 -2.781466,-2.53769 -3.711543,-3.85886 -0.250079,-0.35524 -0.476674,-0.63763 -0.503545,-0.62753 -0.02687,0.0101 -0.252131,0.304 -0.500579,0.65312 -1.095758,1.53977 -2.416422,2.86275 -4.288031,4.29555 -0.06557,0.0502 -0.08352,-0.0869 -0.08352,-0.63789 z"
           id="path13702"
           inkscape:connector-curvature="0" />
      </g>
    </g>
  </g>
</svg>
