<?xml version="1.0" encoding="UTF-8" standalone="no"?>
<!-- Created with Inkscape (http://www.inkscape.org/) -->

<svg
   xmlns:dc="http://purl.org/dc/elements/1.1/"
   xmlns:cc="http://creativecommons.org/ns#"
   xmlns:rdf="http://www.w3.org/1999/02/22-rdf-syntax-ns#"
   xmlns:svg="http://www.w3.org/2000/svg"
   xmlns="http://www.w3.org/2000/svg"
   xmlns:sodipodi="http://sodipodi.sourceforge.net/DTD/sodipodi-0.dtd"
   xmlns:inkscape="http://www.inkscape.org/namespaces/inkscape"
   width="136"
   height="136"
   viewBox="0 0 35.983333 35.983334"
   version="1.1"
   id="svg8"
   inkscape:version="0.92.4 5da689c313, 2019-01-14"
   sodipodi:docname="WhitePawn.svg">
  <defs
     id="defs2" />
  <sodipodi:namedview
     id="base"
     pagecolor="#ffffff"
     bordercolor="#666666"
     borderopacity="1.0"
     inkscape:pageopacity="0.0"
     inkscape:pageshadow="2"
     inkscape:zoom="1.979899"
     inkscape:cx="5.8455624"
     inkscape:cy="51.075127"
     inkscape:document-units="mm"
     inkscape:current-layer="layer1"
     showgrid="false"
     units="px"
     inkscape:window-width="1362"
     inkscape:window-height="720"
     inkscape:window-x="0"
     inkscape:window-y="46"
     inkscape:window-maximized="0"
     inkscape:lockguides="true"
     inkscape:snap-object-midpoints="true"
     showguides="false"
     inkscape:snap-global="false" />
  <metadata
     id="metadata5">
    <rdf:RDF>
      <cc:Work
         rdf:about="">
        <dc:format>image/svg+xml</dc:format>
        <dc:type
           rdf:resource="http://purl.org/dc/dcmitype/StillImage" />
        <dc:title />
      </cc:Work>
    </rdf:RDF>
  </metadata>
  <g
     inkscape:label="Layer 1"
     inkscape:groupmode="layer"
     id="layer1"
     transform="translate(0,-261.01665)">
    <g
       id="g144"
       transform="translate(-0.13363438,1.1247362)">
      <polygon
         transform="matrix(-0.95060895,0,0,-0.95060895,31.291235,292.62609)"
         style="fill:#008000;fill-opacity:1;stroke:#000000;stroke-width:0.5291667;stroke-miterlimit:4;stroke-dasharray:none"
         points="3.844982,27.358471 0,0 27.7,0 23.855018,27.358471 13.85,31 "
         id="shogi_trapezoid" />
      <g
         style="fill:#dfa839;fill-opacity:1;stroke:#000000;stroke-width:7.86800146"
         transform="matrix(0.02718444,0,0,0.02718444,12.015652,271.85179)"
         id="g601">
        <title
           id="title596">Layer 1</title>
        <path
           sodipodi:nodetypes="cccccccccccccccccccccccccccccccccccccccccccccc"
           style="fill:#dfa839;fill-opacity:1;fill-rule:evenodd;stroke:#000000;stroke-width:7.86800146"
           inkscape:connector-curvature="0"
           d="m 247.879,10.0038 c -36.791,0.0608 -74.282,8.3383 -107.444,23.585 -42.9683,21.467 -70.8571,55.7256 -85.8429,96.7502 l -12.5382,7.927 c -6.8129,4.31 -11.4921,14.305 -10.4679,22.389 l 14.7871,116.799 c 0.3954,3.13 1.6029,5.499 3.2999,6.982 0.3753,1.638 0.7707,3.276 1.17,4.904 -4.7502,12.804 -13.6209,18.606 -22.1068,25.08 l 1.0203,3.686 c 23.4487,4.993 47.07,7.235 70.8175,7.07 1.793,3.013 3.239,5.304 3.239,5.304 l 10.467,17.367 c 0.95,22.106 2.332,22.876 -3.782,35.592 -1.075,2.242 -9.719,-7.587 -10.9139,-5.451 -7.0912,12.637 -7.5424,43.587 -21.5069,64.084 -20.1593,27.518 -40.309,61.071 -60.4692,94.215 -5.8207,11.536 -8.50929,26.26 -8.60796,43.607 50.87576,-21.277 91.47796,-78.896 188.54896,0 38.758,16.889 77.506,16.002 116.264,0 -9.723,-21.696 -21.75,-44.962 -27.48,-63.957 2.765,-4.525 6.498,-9.332 11.672,-14.812 v -21.336 l 4.405,-6.913 3.033,7.742 c 11.854,2.887 23.718,-2.954 35.572,-8.015 l -5.702,-19.961 c 21.088,6.904 36.762,13.759 61.189,11.614 9.484,-1.872 9.061,-3.374 15.665,-8.172 6.287,-5.675 12.986,-12.374 10.462,-24.251 l -8.187,-28.551 c 5.09513,-24.17226 10.70692,-19.84376 3.781,-27.215 l 1.498,-0.888 6.21,-4.69 c -4.128,-7.303 -9.205,-9.039 -6.604,-29.224 l 26.251,-7.489 c 6.23,-2.935 8.399,-12.784 6.537,-21.881 l -40.946,-58.605 8.158,-13.524 -2.006,-6.914 c 19.936,1.424 40.063,-3.764 60.738,-14.266 l 3.417,-4.515 C 466.579,211.253 452,207.763 440.712,197.592 442.728,167.169 428.801,146.126 421.458,123.64 395.543,44.1912 323.21,9.88285 247.882,9.99987 Z"
           id="imagebot_2" />
      </g>
    </g>
  </g>
</svg>
