<?xml version="1.0" encoding="UTF-8" standalone="no"?>
<!-- Created with Inkscape (http://www.inkscape.org/) -->

<svg
   xmlns:dc="http://purl.org/dc/elements/1.1/"
   xmlns:cc="http://creativecommons.org/ns#"
   xmlns:rdf="http://www.w3.org/1999/02/22-rdf-syntax-ns#"
   xmlns:svg="http://www.w3.org/2000/svg"
   xmlns="http://www.w3.org/2000/svg"
   xmlns:sodipodi="http://sodipodi.sourceforge.net/DTD/sodipodi-0.dtd"
   xmlns:inkscape="http://www.inkscape.org/namespaces/inkscape"
   width="136"
   height="136"
   viewBox="0 0 35.983333 35.983334"
   version="1.1"
   id="svg8"
   inkscape:version="0.92.4 5da689c313, 2019-01-14"
   sodipodi:docname="WhiteLance.svg">
  <defs
     id="defs2">
    <clipPath
       id="_clipPath_hSMxvQTk88aY05AADG6l2vzi5RLYP57F">
      <rect
         id="rect6056"
         height="450"
         width="450" />
    </clipPath>
  </defs>
  <sodipodi:namedview
     id="base"
     pagecolor="#ffffff"
     bordercolor="#666666"
     borderopacity="1.0"
     inkscape:pageopacity="0.0"
     inkscape:pageshadow="2"
     inkscape:zoom="1.4"
     inkscape:cx="3.3115604"
     inkscape:cy="34.766516"
     inkscape:document-units="mm"
     inkscape:current-layer="layer1"
     showgrid="false"
     units="px"
     inkscape:window-width="679"
     inkscape:window-height="720"
     inkscape:window-x="0"
     inkscape:window-y="46"
     inkscape:window-maximized="0"
     inkscape:lockguides="true"
     inkscape:snap-object-midpoints="true"
     showguides="false"
     inkscape:snap-global="false" />
  <metadata
     id="metadata5">
    <rdf:RDF>
      <cc:Work
         rdf:about="">
        <dc:format>image/svg+xml</dc:format>
        <dc:type
           rdf:resource="http://purl.org/dc/dcmitype/StillImage" />
        <dc:title />
      </cc:Work>
    </rdf:RDF>
  </metadata>
  <g
     inkscape:label="Layer 1"
     inkscape:groupmode="layer"
     id="layer1"
     transform="translate(0,-261.01665)">
    <g
       id="g284"
       transform="matrix(-0.85556359,0,0,-0.85556359,33.384681,517.66367)">
      <polygon
         transform="matrix(-1.11111,0,0,-1.11111,33.38054,296.17683)"
         style="fill:#008000;fill-opacity:1;stroke:#000000;stroke-width:0.5291667;stroke-miterlimit:4;stroke-dasharray:none"
         points="0,0 27.7,0 23.855018,27.358471 13.85,31 3.844982,27.358471 "
         id="shogi_trapezoid" />
      <g
         transform="matrix(0.04183597,-0.04114327,0.04114327,0.04183597,-0.64697273,280.63266)"
         id="g6101"
         style="isolation:isolate;fill:#dfa839;fill-opacity:1;stroke:#000000;stroke-width:4.26059675">
        <g
           style="fill:#dfa839;fill-opacity:1;stroke:#000000;stroke-width:4.26059675"
           clip-path="url(#_clipPath_hSMxvQTk88aY05AADG6l2vzi5RLYP57F)"
           id="g6080">
          <g
             style="fill:#dfa839;fill-opacity:1;stroke:#000000;stroke-width:4.26059675"
             id="Group">
            <path
               inkscape:connector-curvature="0"
               id="path6061"
               transform="rotate(41.785082,-204.16768,595.0154)"
               d="m -125.43945,-212.91211 -0.75586,13.45313 c -1.12762,14.45151 -17.42158,41.54859 -23.19336,58.25195 l -0.28711,-0.0156 c -0.72696,2.60214 -1.27604,4.9566 -1.54492,6.95508 -0.0774,0.52967 -0.13531,1.04038 -0.16211,1.52149 -0.0492,0.74176 -0.0584,1.54474 -0.0508,2.375 -0.004,14.84119 6.59152,41.781615 13.78711,58.443356 l -0.0195,0.01758 -9.51562,16.625 42.76758,2.371094 -7.57813,-17.578126 c 9.50334,-16.612944 19.652324,-44.714464 20.455081,-58.892584 0.02677,-0.47321 0.02824,-0.97846 0.01172,-1.5039 -0.04139,-2.01888 -0.330821,-4.4262 -0.783203,-7.08594 l -0.255859,-0.0137 c -3.892649,-17.43307 -17.285919,-46.65942 -16.480469,-60.98828 l -0.0195,-0.002 0.72461,-12.9746 z m -13.19336,158.107422 -9.50391,16.613282 v 0.0039 h -0.006 c -1.50702,-0.0842 -2.94305,0.230199 -4.21094,0.845703 l -34.91601,-1.957031 c -3.08708,-0.227934 -6.05751,1.228987 -7.76758,3.808594 -1.71006,2.579606 -1.89547,5.881089 -0.48437,8.636718 1.41117,2.754218 4.19716,4.534341 7.29101,4.654297 l 30.51367,1.712891 -0.34179,6.046875 c -0.12961,2.269651 0.64947,4.496545 2.16406,6.1914061 1.51459,1.6948613 3.63962,2.719583 5.91015,2.8457031 h 0.004 l -2.83594,50.4453128 -0.28515,-0.01563 c -4.72169,-0.265217 -8.76408,3.346672 -9.0293,8.068359 l -0.96094,17.099609 c -0.26521,4.721688 3.34601,8.763335 8.06836,9.029297 l 0.28516,0.01563 -0.45117,8.03711 42.7539,2.394531 0.0117,-0.210937 65.064455,3.654296 c 4.721767,0.263805 8.765367,-3.347417 9.03125,-8.068359 l 0.480469,-8.550781 c 0.265216,-4.721688 -3.348625,-8.764081 -8.070313,-9.029297 l -65.064451,-3.654297 1.61523,-28.767578 83.205081,4.671875 c 4.721021,0.264471 8.762668,-3.348705 9.029297,-8.070313 l 0.480468,-8.548828 c 0.263805,-4.721766 -3.347417,-8.763414 -8.068359,-9.029297 l -83.205077,-4.6738278 2.53711,-45.1855472 -7.58985,-17.580078 z m -16.55664,142.082032 -2.5586,45.529296 c -0.48023,8.54959 7.10914,26.12815 6.62891,34.67774 l -1.44141,25.64843 25.67383,1.4668 1.41016,-25.66797 c 0.48619,-8.55492 9.99619,-25.17392 10.48242,-33.7168 l 2.55273,-45.537106 z m 2.6289,105.855466 -19.41992,41.6836 -0.0488,-0.002 c -3.11203,-0.27537 -6.12847,1.16684 -7.86914,3.76172 -1.74,2.59563 -1.92646,5.93229 -0.49023,8.70703 1.43622,2.77475 4.26869,4.54602 7.39258,4.62305 l 59.85351,3.36914 c 3.08642,0.22719 6.05556,-1.22899 7.76563,-3.80859 1.71006,-2.57961 1.89673,-5.88184 0.48633,-8.63672 -1.41184,-2.75497 -4.19783,-4.53509 -7.29102,-4.6543 l -0.0488,-0.002 -14.66406,-43.56641 z"
               style="fill:#dfa839;fill-opacity:1;stroke:#000000;stroke-width:4.26059675" />
          </g>
        </g>
      </g>
    </g>
  </g>
</svg>
