<?xml version="1.0" encoding="UTF-8" standalone="no"?>
<!-- Created with Inkscape (http://www.inkscape.org/) -->

<svg
   xmlns:dc="http://purl.org/dc/elements/1.1/"
   xmlns:cc="http://creativecommons.org/ns#"
   xmlns:rdf="http://www.w3.org/1999/02/22-rdf-syntax-ns#"
   xmlns:svg="http://www.w3.org/2000/svg"
   xmlns="http://www.w3.org/2000/svg"
   xmlns:sodipodi="http://sodipodi.sourceforge.net/DTD/sodipodi-0.dtd"
   xmlns:inkscape="http://www.inkscape.org/namespaces/inkscape"
   width="136"
   height="136"
   viewBox="0 0 35.983333 35.983334"
   version="1.1"
   id="svg8"
   inkscape:version="0.92.4 5da689c313, 2019-01-14"
   sodipodi:docname="WhiteRook.svg">
  <defs
     id="defs2" />
  <sodipodi:namedview
     id="base"
     pagecolor="#ffffff"
     bordercolor="#666666"
     borderopacity="1.0"
     inkscape:pageopacity="0.0"
     inkscape:pageshadow="2"
     inkscape:zoom="0.9899495"
     inkscape:cx="-132.79797"
     inkscape:cy="114.34527"
     inkscape:document-units="mm"
     inkscape:current-layer="layer1"
     showgrid="false"
     units="px"
     inkscape:window-width="679"
     inkscape:window-height="720"
     inkscape:window-x="0"
     inkscape:window-y="46"
     inkscape:window-maximized="0"
     inkscape:lockguides="true"
     inkscape:snap-object-midpoints="true"
     showguides="false"
     inkscape:snap-global="false" />
  <metadata
     id="metadata5">
    <rdf:RDF>
      <cc:Work
         rdf:about="">
        <dc:format>image/svg+xml</dc:format>
        <dc:type
           rdf:resource="http://purl.org/dc/dcmitype/StillImage" />
        <dc:title />
      </cc:Work>
    </rdf:RDF>
  </metadata>
  <g
     inkscape:label="Layer 1"
     inkscape:groupmode="layer"
     id="layer1"
     transform="translate(0,-261.01665)">
    <g
       id="g208"
       transform="matrix(-0.85556359,0,0,-0.85556359,33.384681,517.66367)">
      <polygon
         transform="matrix(-1.11111,0,0,-1.11111,33.38054,296.17683)"
         style="fill:#008000;fill-opacity:1;stroke:#000000;stroke-width:0.5291667;stroke-miterlimit:4;stroke-dasharray:none"
         points="0,0 27.7,0 23.855018,27.358471 13.85,31 3.844982,27.358471 "
         id="shogi_trapezoid" />
      <path
         sodipodi:nodetypes="cccccccccsssssccssscsscccccccssccccsccccccccccscccccscsssccsccccccccssccssccccccccccccccscscsssscsccccccccccsccccscccccsccccscccscsccccsccsccc"
         style="fill:#dfa839;fill-opacity:1;stroke:#000000;stroke-width:0.25"
         d="m 14.736653,288.60929 c -0.195659,-0.0367 -0.403768,-0.0937 -0.462465,-0.12682 -0.05871,-0.0331 -0.602982,-0.18052 -1.209522,-0.32758 -0.606539,-0.14711 -1.166831,-0.29164 -1.245095,-0.32118 -0.290051,-0.10955 -0.648332,-0.20855 -0.924929,-0.25549 -0.875194,-0.14857 -1.9357303,-0.45392 -2.0171948,-0.58079 -0.025352,-0.0396 -0.1261394,-0.0942 -0.2239705,-0.12143 -0.097825,-0.0274 -0.2419012,-0.079 -0.3201622,-0.11485 -0.078266,-0.0359 -0.2303442,-0.0971 -0.3379599,-0.13607 -0.1076094,-0.0389 -0.195656,-0.11968 -0.195656,-0.17934 0,-0.061 -0.062227,-0.10852 -0.1422975,-0.10852 -0.1043514,0 -0.1422923,-0.0474 -0.1422923,-0.17785 0,-0.11067 -0.040333,-0.17789 -0.1067273,-0.17789 -0.067424,0 -0.1067212,-0.068 -0.1067212,-0.18453 0,-0.12688 -0.046105,-0.19657 -0.1475858,-0.22311 -0.1141631,-0.0299 -0.1380191,-0.0767 -0.1053676,-0.20679 0.03456,-0.13765 0.01453,-0.1682 -0.1103289,-0.1682 -0.1315451,0 -0.1466703,-0.0293 -0.1098524,-0.21345 0.036551,-0.18273 0.021298,-0.21343 -0.1061292,-0.21343 -0.120366,0 -0.1423049,-0.034 -0.1148075,-0.17788 0.026399,-0.13819 0.00461,-0.17788 -0.098432,-0.17788 -0.092251,0 -0.1324271,-0.0516 -0.1324271,-0.17025 0,-0.0936 -0.048033,-0.18868 -0.1067273,-0.21121 -0.1293493,-0.0496 -0.1411379,-0.23457 -0.017778,-0.27914 0.059242,-0.0214 0.021497,-0.10414 -0.1131816,-0.24779 -0.1783674,-0.19032 -0.1883521,-0.22336 -0.08494,-0.28123 0.1080137,-0.0603 0.1071317,-0.0835 -0.011345,-0.29528 -0.1240882,-0.22182 -0.1240285,-0.23305 0.00136,-0.32707 0.1040581,-0.0779 0.1147478,-0.12609 0.053333,-0.24081 -0.1085575,-0.20283 -0.095195,-0.36625 0.02992,-0.36625 0.058707,0 0.1067273,-0.0336 0.1067273,-0.0746 0,-0.0443 -0.144309,-0.0681 -0.3549237,-0.0585 -0.1952106,0.008 -0.3714484,-3.5e-4 -0.3916357,-0.0205 -0.062489,-0.0625 0.1179849,-0.5134 0.2761588,-0.68988 0.082624,-0.0923 0.2222703,-0.19547 0.3103169,-0.22948 0.1035761,-0.04 0.1600837,-0.12134 0.1600837,-0.23046 0,-0.37636 0.4038088,-0.48387 2.170021,-0.57772 0.6663531,-0.0355 0.9223665,-0.0657 1.1027987,-0.1314 0.1887281,-0.0686 1.4125771,-0.16348 2.7518031,-0.21357 0.241705,-0.009 0.460997,-0.0379 0.487315,-0.0643 0.02633,-0.0263 0.02682,-0.17237 0.0011,-0.32458 -0.04666,-0.27623 -0.04772,-0.27697 -0.558463,-0.40116 -0.281442,-0.0686 -0.740655,-0.23778 -1.020481,-0.37634 l -0.508761,-0.25191 0.197408,-0.29444 c 0.108576,-0.16193 0.315215,-0.47853 0.459199,-0.70355 0.14399,-0.22499 0.279257,-0.4091 0.300602,-0.4091 0.02134,0 0.144023,0.05 0.272625,0.111 0.140675,0.0668 0.370043,0.10225 0.575768,0.0889 0.317735,-0.0204 0.346081,-0.0381 0.400259,-0.24841 0.0406,-0.15762 0.10669,-0.23325 0.217614,-0.24901 0.228956,-0.0326 0.201008,-0.23128 -0.03635,-0.2586 -0.196934,-0.0228 -0.280341,-0.15534 -0.09764,-0.15534 0.05391,0 0.137863,-0.0481 0.186576,-0.10671 0.04872,-0.0587 0.163245,-0.10672 0.254507,-0.10672 0.133311,0 0.175117,-0.049 0.212648,-0.24901 0.04472,-0.23839 0.05968,-0.24903 0.350257,-0.24903 0.178858,0 0.338828,0.0425 0.389465,0.1035 0.118683,0.14301 0.339981,-7e-5 0.396232,-0.25617 0.05701,-0.25955 0.331038,-0.34541 1.102442,-0.34541 0.713049,0 0.787328,0.0466 0.79359,0.49831 0.0023,0.1624 0.04029,0.30575 0.08454,0.31856 0.04426,0.0128 0.144502,0.0459 0.222764,0.0735 0.07826,0.0276 0.243535,0.0576 0.36727,0.0666 0.265583,0.0194 0.408313,0.14421 0.476727,0.4168 0.04628,0.18435 0.07362,0.19762 0.385533,0.18709 0.184651,-0.005 0.81977,-0.006 1.411369,-3.8e-4 0.591584,0.005 1.103866,0.004 1.138372,-0.003 0.117053,-0.027 0.311787,0.094 0.311787,0.19364 0,0.0547 0.05089,0.0992 0.113105,0.0992 0.06221,0 0.171994,0.072 0.243967,0.16009 0.100433,0.12287 0.150614,0.14069 0.215793,0.0766 0.132884,-0.13056 0.423212,0.0322 0.423212,0.23716 0,0.0915 0.0375,0.16644 0.08334,0.16644 0.04584,0 0.141007,0.0522 0.211502,0.11602 0.140975,0.12757 0.426691,0.0257 4.151931,-1.48032 2.467992,-0.99771 2.408443,-0.96961 2.54092,-1.20043 0.668809,-1.12308 1.009727,1.49022 0.2261,0.78535 -0.04834,-0.0485 -0.326407,0.0347 -0.850223,0.25421 -0.428122,0.17934 -0.896754,0.36972 -1.041469,0.42309 -0.270905,0.0999 -1.082166,0.43811 -3.279155,1.36683 l -1.265445,0.53496 0.04503,0.40054 c 0.03835,0.34112 0.02287,0.42863 -0.104351,0.58989 -0.08218,0.10412 -0.131107,0.23696 -0.108769,0.29517 0.02233,0.0582 0.0065,0.12698 -0.03537,0.15282 -0.177743,0.10987 -0.0724,0.25209 0.190805,0.25762 0.353137,0.008 1.201552,0.15835 1.268931,0.22571 0.0293,0.0294 0.128977,0.0533 0.221512,0.0533 0.09253,0 0.186671,0.0481 0.209197,0.1067 0.02253,0.0587 0.113255,0.10672 0.201621,0.10672 0.08836,0 0.242068,0.0641 0.341561,0.14228 0.196235,0.15436 0.336326,0.18401 0.336326,0.0712 0,-0.0391 0.03203,-0.0712 0.07115,-0.0712 0.03914,0 0.07115,0.0481 0.07115,0.10672 0,0.0598 0.0635,0.1067 0.14453,0.1067 0.07949,0 0.162958,-0.0481 0.185483,-0.1067 0.04967,-0.12945 0.168023,-0.14165 0.168023,-0.0173 0,0.14999 0.501825,0.31776 1.156944,0.38682 0.232904,0.0245 0.37064,0.0811 0.440756,0.18131 0.08617,0.123 0.221258,0.15592 0.870785,0.21216 1.053565,0.0913 1.371882,0.2796 1.761989,1.04303 0.147591,0.2888 0.08281,0.35695 -0.352888,0.37126 -0.156527,0.005 -0.228565,0.0239 -0.160084,0.0418 0.151218,0.0396 0.158268,0.12048 0.02233,0.25641 -0.08878,0.0888 -0.07617,0.13331 0.09639,0.34 0.193259,0.23149 0.194931,0.24075 0.06285,0.34772 -0.127389,0.10318 -0.128933,0.1261 -0.02524,0.37428 0.139209,0.33317 0.138676,0.34011 -0.02589,0.34011 -0.169007,0 -0.211042,0.10807 -0.163273,0.41958 0.03541,0.23092 0.02878,0.23963 -0.148494,0.19513 -0.168928,-0.0424 -0.189844,-0.0236 -0.233395,0.20843 -0.04219,0.22488 -0.0678,0.25001 -0.216768,0.21262 -0.143513,-0.0361 -0.168927,-0.016 -0.168927,0.13263 0,0.21419 -0.113312,0.29605 -0.251297,0.18153 -0.0808,-0.067 -0.109097,-0.0646 -0.132357,0.0118 -0.103503,0.3391 -0.116519,0.35489 -0.256284,0.31051 -0.109729,-0.0348 -0.159016,-0.002 -0.21385,0.14217 -0.05476,0.14403 -0.104194,0.17698 -0.213501,0.14229 -0.117694,-0.0373 -0.142239,-0.0128 -0.142239,0.1426 0,0.15703 -0.02799,0.18408 -0.170935,0.16536 -0.09401,-0.0124 -0.23008,0.0298 -0.302379,0.0934 -0.07231,0.0638 -0.443205,0.17133 -0.824255,0.239 -0.650123,0.11546 -0.744352,0.1158 -1.529688,0.005 -0.460294,-0.0647 -0.997001,-0.14785 -1.19266,-0.18494 -0.195656,-0.0371 -0.900026,-0.15013 -1.565262,-0.25123 -0.665238,-0.1011 -1.508558,-0.2617 -1.873976,-0.3569 -0.743927,-0.19376 -0.743499,-0.1937 -0.699907,-0.11973 0.06596,0.11203 -0.0945,0.37354 -0.229225,0.37354 -0.09065,0 -0.147619,0.0561 -0.162375,0.16007 -0.01666,0.11726 -0.07033,0.16009 -0.20061,0.16009 -0.131446,0 -0.183925,0.0427 -0.201073,0.16364 -0.01723,0.12162 -0.06269,0.15817 -0.177002,0.1423 -0.112996,-0.0157 -0.154029,0.0162 -0.15467,0.12006 -5.69e-4,0.0933 -0.06136,0.15381 -0.178737,0.17787 -0.117795,0.0241 -0.177873,0.0842 -0.177873,0.17779 0,0.085 -0.05673,0.15196 -0.142296,0.16803 -0.07825,0.0145 -0.167902,0.0712 -0.199195,0.12547 -0.03129,0.0543 -0.124821,0.0987 -0.207845,0.0987 -0.08302,0 -0.202986,0.047 -0.266591,0.10465 -0.258005,0.2335 -1.88543,0.4379 -2.528042,0.31751 z"
         id="path2976"
         inkscape:connector-curvature="0" />
    </g>
  </g>
</svg>
