<?xml version="1.0" encoding="UTF-8" standalone="no"?>
<!-- Created with Inkscape (http://www.inkscape.org/) -->

<svg
   xmlns:dc="http://purl.org/dc/elements/1.1/"
   xmlns:cc="http://creativecommons.org/ns#"
   xmlns:rdf="http://www.w3.org/1999/02/22-rdf-syntax-ns#"
   xmlns:svg="http://www.w3.org/2000/svg"
   xmlns="http://www.w3.org/2000/svg"
   xmlns:sodipodi="http://sodipodi.sourceforge.net/DTD/sodipodi-0.dtd"
   xmlns:inkscape="http://www.inkscape.org/namespaces/inkscape"
   width="136"
   height="136"
   viewBox="0 0 35.983333 35.983334"
   version="1.1"
   id="svg8"
   inkscape:version="0.92.4 5da689c313, 2019-01-14"
   sodipodi:docname="WhiteCrownedBishop.svg">
  <defs
     id="defs2" />
  <sodipodi:namedview
     id="base"
     pagecolor="#ffffff"
     bordercolor="#666666"
     borderopacity="1.0"
     inkscape:pageopacity="0.0"
     inkscape:pageshadow="2"
     inkscape:zoom="1.4"
     inkscape:cx="201.28804"
     inkscape:cy="71.868377"
     inkscape:document-units="mm"
     inkscape:current-layer="layer1"
     showgrid="false"
     units="px"
     inkscape:window-width="1362"
     inkscape:window-height="720"
     inkscape:window-x="0"
     inkscape:window-y="46"
     inkscape:window-maximized="0"
     inkscape:lockguides="true"
     inkscape:snap-object-midpoints="true"
     showguides="false"
     inkscape:snap-global="false" />
  <metadata
     id="metadata5">
    <rdf:RDF>
      <cc:Work
         rdf:about="">
        <dc:format>image/svg+xml</dc:format>
        <dc:type
           rdf:resource="http://purl.org/dc/dcmitype/StillImage" />
        <dc:title />
      </cc:Work>
    </rdf:RDF>
  </metadata>
  <g
     inkscape:label="Layer 1"
     inkscape:groupmode="layer"
     id="layer1"
     transform="translate(0,-261.01665)">
    <path
       style="fill:url(#bv);stroke-width:0.04398019"
       inkscape:connector-curvature="0"
       d="m -36.779712,294.49758 c 0,0 0.250687,0.0176 0.211105,0.13634 0,0 2.75316,-0.0968 4.441999,0.15393 l 0.738867,-0.14513 v -0.57175 l -1.921934,-0.0792 z"
       id="path5778" />
    <path
       style="fill:url(#an);stroke-width:0.04398019"
       inkscape:connector-curvature="0"
       d="m -36.779712,279.19248 c 0,0 0.250687,0.0176 0.211105,0.13633 0,0 2.75316,-0.0967 4.441999,0.15393 l 0.738867,-0.14513 v -0.57174 l -1.921934,-0.0792 z"
       id="path6071" />
    <g
       id="layer1-3"
       transform="matrix(0.03191592,0,0,0.03191592,-14.110601,353.14963)" />
    <g
       id="g1057"
       transform="matrix(0.85556359,0,0,0.85556359,2.5986519,40.352967)">
      <polygon
         transform="matrix(-1.11111,0,0,-1.11111,33.38054,296.17683)"
         style="fill:#008000;fill-opacity:1;stroke:#000000;stroke-width:0.5291667;stroke-miterlimit:4;stroke-dasharray:none"
         points="13.85,31 3.844982,27.358471 0,0 27.7,0 23.855018,27.358471 "
         id="shogi_trapezoid" />
      <g
         style="fill:#dfa839;fill-opacity:1;stroke:#000000;stroke-width:1.85971403"
         transform="matrix(0.04335822,-0.03180348,0.03180348,0.04335822,-0.55619221,278.24562)"
         id="g12878">
        <g
           style="fill:#dfa839;fill-opacity:1;stroke:#000000;stroke-width:1.85971403"
           id="g12876">
          <g
             style="fill:#dfa839;fill-opacity:1;stroke:#000000;stroke-width:1.85971403"
             id="g12870">
            <path
               style="clip-rule:evenodd;fill:#dfa839;fill-opacity:1;fill-rule:evenodd;stroke:#000000;stroke-width:1.85971403"
               inkscape:connector-curvature="0"
               d="m 256.115,255.272 c -7.784,0.01 -14.438,2.782 -19.96,8.321 -5.539,5.521 -8.315,12.175 -8.322,19.959 0.007,7.802 2.783,14.475 8.322,20.017 5.522,5.519 12.176,8.273 19.96,8.262 7.806,0.012 14.478,-2.743 20.021,-8.262 5.519,-5.542 8.274,-12.215 8.263,-20.017 0.012,-7.784 -2.744,-14.438 -8.263,-19.959 -5.543,-5.538 -12.215,-8.311 -20.021,-8.321 z m 22.871,-66.101 h 1.339 c 10.268,0.242 19.211,1.89 26.828,4.946 7.759,3.14 14.14,7.756 19.146,13.848 h 90.086 v -26.067 c -11.027,-0.209 -21.211,-0.714 -30.552,-1.513 -6.636,-0.569 -12.842,-1.287 -18.623,-2.154 -16.513,-2.431 -24.775,-5.359 -24.792,-8.786 0.017,-3.409 8.279,-6.338 24.792,-8.786 13.956,-2.02 30.349,-3.184 49.175,-3.491 v -1.222 c -0.018,-1.436 0.196,-2.773 0.64,-4.016 0.565,-1.758 1.536,-3.349 2.909,-4.771 2.41,-2.394 5.319,-3.578 8.729,-3.55 3.451,-0.028 6.401,1.156 8.848,3.55 2.323,2.355 3.544,5.167 3.664,8.437 0,0.116 0,0.232 0,0.351 v 1.222 c 6.393,0.179 12.503,0.47 18.331,0.873 9.955,0.558 19.053,1.431 27.295,2.618 0.474,0.089 0.939,0.186 1.396,0.291 15.626,2.372 23.462,5.203 23.512,8.495 -0.05,3.33 -7.886,6.181 -23.512,8.554 -0.457,0.085 -0.923,0.162 -1.396,0.232 -13.051,1.961 -28.259,3.144 -45.626,3.55 v 26.185 H 452 c 3.431,0.012 6.36,1.233 8.788,3.666 2.433,2.408 3.655,5.318 3.665,8.729 -0.007,2.427 -0.628,4.599 -1.862,6.517 -2.114,2.812 -5.181,4.789 -9.195,5.935 -33.984,8.146 -67.97,16.293 -101.957,24.439 l 38.934,81.582 c 0.226,0.402 0.439,0.812 0.639,1.221 9.332,26.235 2.833,47.242 -19.495,63.019 -2.808,2.014 -5.89,2.753 -9.252,2.212 -3.325,-0.616 -5.965,-2.341 -7.915,-5.181 -2.017,-2.798 -2.756,-5.882 -2.212,-9.251 0.584,-3.343 2.273,-6 5.064,-7.971 12.017,-8.617 15.49,-20.062 10.416,-34.331 l -40.911,-85.362 -10.65,2.618 v 42.534 c 0.005,3.035 -0.753,5.867 -2.269,8.497 v 0.057 c -1.534,2.613 -3.61,4.669 -6.227,6.169 l -42.948,24.729 v 0.06 c -2.655,1.509 -5.487,2.267 -8.497,2.269 -3.023,-0.025 -5.856,-0.8 -8.495,-2.328 l -42.89,-24.789 -0.118,-0.057 c -2.585,-1.536 -4.621,-3.611 -6.11,-6.226 -1.519,-2.63 -2.273,-5.444 -2.269,-8.438 v -42.478 l -10.707,-2.618 -40.912,85.362 c -5.073,14.27 -1.603,25.714 10.416,34.331 2.792,1.971 4.48,4.628 5.063,7.971 0.546,3.369 -0.193,6.453 -2.209,9.251 -1.951,2.84 -4.59,4.564 -7.916,5.181 -3.362,0.541 -6.446,-0.198 -9.252,-2.212 -22.328,-15.776 -28.827,-36.783 -19.495,-63.019 0.2,-0.409 0.414,-0.818 0.639,-1.221 l 38.934,-81.582 c -33.987,-8.146 -67.972,-16.293 -101.959,-24.439 -4.015,-1.146 -7.079,-3.123 -9.193,-5.935 -1.234,-1.918 -1.855,-4.09 -1.864,-6.517 0.011,-3.41 1.232,-6.32 3.667,-8.729 2.428,-2.433 5.358,-3.654 8.789,-3.666 H 71.058 V 181.78 c -17.368,-0.406 -32.576,-1.589 -45.624,-3.55 -0.473,-0.07 -0.939,-0.147 -1.396,-0.232 -15.626,-2.373 -23.462,-5.224 -23.512,-8.554 0.05,-3.292 7.886,-6.123 23.512,-8.495 0.457,-0.105 0.923,-0.202 1.396,-0.291 8.243,-1.188 17.34,-2.061 27.292,-2.618 5.831,-0.403 11.941,-0.694 18.332,-0.873 v -1.222 c 0,-0.118 0,-0.234 0,-0.351 0.123,-3.27 1.344,-6.081 3.667,-8.437 2.446,-2.394 5.394,-3.578 8.845,-3.55 3.413,-0.028 6.322,1.156 8.729,3.55 1.375,1.423 2.346,3.014 2.91,4.771 0.446,1.242 0.659,2.58 0.641,4.016 v 1.222 c 18.827,0.308 35.22,1.472 49.175,3.491 16.513,2.448 24.776,5.377 24.792,8.786 -0.016,3.427 -8.279,6.355 -24.792,8.786 -5.781,0.867 -11.989,1.585 -18.622,2.154 -9.344,0.799 -19.527,1.304 -30.553,1.513 v 26.067 h 90.086 c 5.004,-6.092 11.387,-10.708 19.146,-13.848 7.618,-3.057 16.561,-4.704 26.829,-4.946 h 1.339 c 1.173,-0.039 2.373,-0.039 3.607,0 h 38.524 c 1.229,-0.037 2.432,-0.037 3.605,0.002 z"
               id="path12868" />
          </g>
          <g
             style="fill:#dfa839;fill-opacity:1;stroke:#000000;stroke-width:1.85971403"
             id="g12874">
            <path
               style="clip-rule:evenodd;fill:#ff0000;fill-opacity:1;fill-rule:evenodd;stroke:#000000;stroke-width:1.85971403"
               inkscape:connector-curvature="0"
               d="m 256.058,269.413 c 3.901,0.014 7.238,1.411 10.01,4.188 2.76,2.751 4.137,6.069 4.133,9.951 0.004,3.901 -1.373,7.237 -4.133,10.009 -2.771,2.759 -6.108,4.137 -10.01,4.13 -3.883,0.007 -7.199,-1.371 -9.952,-4.13 -2.78,-2.771 -4.176,-6.107 -4.189,-10.009 0.014,-3.882 1.409,-7.2 4.189,-9.951 2.752,-2.777 6.069,-4.174 9.952,-4.188 z"
               id="path12872" />
          </g>
        </g>
      </g>
      <circle
         transform="scale(1,-1)"
         r="1.9175035"
         cy="-282.46722"
         cx="19.610903"
         id="path12893"
         style="opacity:1;fill:#ff0000;fill-opacity:1;stroke:#000000;stroke-width:0.07358378;stroke-linecap:square;stroke-linejoin:miter;stroke-miterlimit:1;stroke-dasharray:none;stroke-opacity:1;paint-order:fill markers stroke" />
    </g>
  </g>
</svg>
